<svg xmlns="http://www.w3.org/2000/svg" width="22" height="22" viewBox="0 0 22 22" fill="none">
    <circle cx="11.1729" cy="10.7243" r="10.7243" fill="#fff"></circle>
    <path d="M11.1536 3.91125H11.1502C7.40522 3.91125 4.35983 6.95749 4.35983 10.7033C4.35983 12.1891 4.83867 13.5662 5.65287 14.6843L4.80641 17.2076L7.41711 16.373C8.4911 17.0844 9.77225 17.4954 11.1536 17.4954C14.8986 17.4954 17.9439 14.4483 17.9439 10.7033C17.9439 6.95834 14.8986 3.91125 11.1536 3.91125Z" fill="#4CAF50"></path>
    <path fill-rule="evenodd" clip-rule="evenodd" d="M3.93927 10.7032C3.93927 6.72523 7.17285 3.4906 11.1502 3.4906H11.1536C15.131 3.4906 18.3645 6.72612 18.3645 10.7032C18.3645 14.6803 15.131 17.9158 11.1536 17.9158C9.76015 17.9158 8.46129 17.5216 7.35653 16.8338L4.93447 17.608C4.78349 17.6563 4.61819 17.6156 4.50691 17.5027C4.39563 17.3898 4.35727 17.224 4.40769 17.0737L5.18641 14.7524C4.39858 13.598 3.93927 12.2022 3.93927 10.7032ZM11.1502 4.33172C7.63759 4.33172 4.78039 7.18956 4.78039 10.7032C4.78039 12.0973 5.22938 13.3882 5.99285 14.4366C6.07301 14.5467 6.09491 14.6888 6.05159 14.818L5.4692 16.5541L7.28905 15.9723C7.41052 15.9335 7.54305 15.9518 7.64937 16.0223C8.65647 16.6894 9.85721 17.0747 11.1536 17.0747C14.6661 17.0747 17.5234 14.2161 17.5234 10.7032C17.5234 7.19038 14.6661 4.33172 11.1536 4.33172H11.1502Z" fill="#4CAF50"></path>
    <path d="M15.0254 13.4582C14.8626 13.9233 14.2166 14.3091 13.7013 14.4218C13.3487 14.4977 12.8882 14.5583 11.3381 13.908C9.35524 13.0767 8.07833 11.0377 7.97881 10.9054C7.88351 10.7731 7.17758 9.82571 7.17758 8.84591C7.17758 7.8661 7.66928 7.389 7.86748 7.18416C8.03026 7.01602 8.2993 6.93921 8.55738 6.93921C8.64088 6.93921 8.71594 6.94348 8.78341 6.94689C8.98161 6.95543 9.08113 6.96737 9.21186 7.28402C9.37464 7.68089 9.77103 8.6607 9.81826 8.76141C9.86634 8.86212 9.91441 8.99868 9.84694 9.13097C9.78368 9.26753 9.72802 9.32813 9.6285 9.4442C9.52898 9.56028 9.43452 9.64904 9.335 9.77365C9.24391 9.88204 9.14101 9.99812 9.25572 10.1987C9.37042 10.395 9.76682 11.0496 10.3504 11.5754C11.1036 12.2539 11.7142 12.4707 11.9327 12.5629C12.0954 12.6311 12.2894 12.6149 12.4083 12.4869C12.5593 12.3222 12.7457 12.0491 12.9355 11.7802C13.0704 11.5873 13.2408 11.5634 13.4196 11.6317C13.6018 11.6957 14.5658 12.1779 14.764 12.2778C14.9622 12.3785 15.0929 12.4263 15.141 12.5108C15.1882 12.5953 15.1882 12.9922 15.0254 13.4582Z" fill="#fff"></path>
</svg>