<svg width="22" height="22" viewBox="0 0 22 22" fill="none" xmlns="http://www.w3.org/2000/svg">
	<path d="M11 0C4.92482 0 0 4.92482 0 11C0 17.0752 4.92482 22 11 22C17.0752 22 22 17.0752 22 11C22 4.92482 17.0752 0 11 0Z" fill="#40B3E0"/>
	<path d="M16.3524 6.32762L14.3877 16.2334C14.3877 16.2334 14.113 16.9204 13.3573 16.5906L8.82341 13.1146L7.17479 12.3178L4.39952 11.3835C4.39952 11.3835 3.97362 11.2324 3.93237 10.9027C3.8912 10.5729 4.41327 10.3943 4.41327 10.3943L15.4456 6.06654C15.4456 6.06654 16.3524 5.66813 16.3524 6.32762Z" fill="white"/>
	<path d="M8.47495 16.1222C8.47495 16.1222 8.34261 16.1098 8.1777 15.5876C8.01287 15.0656 7.1748 12.3178 7.1748 12.3178L13.8381 8.08623C13.8381 8.08623 14.2229 7.85266 14.2091 8.08623C14.2091 8.08623 14.2778 8.1274 14.0717 8.31973C13.8656 8.51214 8.83718 13.0322 8.83718 13.0322" fill="#D2E5F1"/>
	<path d="M10.5618 14.4474L8.76848 16.0824C8.76848 16.0824 8.62831 16.1888 8.47491 16.1221L8.81832 13.085" fill="#B5CFE4"/>
</svg>
