<svg xmlns="http://www.w3.org/2000/svg" width="22" height="22" viewBox="0 0 22 22" fill="none">
    <path fill-rule="evenodd" clip-rule="evenodd" d="M10.7243 21.4486C16.6472 21.4486 21.4486 16.6472 21.4486 10.7243C21.4486 4.80144 16.6472 0 10.7243 0C4.80143 0 0 4.80144 0 10.7243C0 16.6472 4.80143 21.4486 10.7243 21.4486ZM14.6134 16.9214C15.4518 16.7269 16.5028 16.0607 16.7676 15.2574C17.0325 14.4527 17.0325 13.7673 16.9556 13.6214C16.8936 13.5057 16.7469 13.4298 16.5278 13.3165C16.4708 13.287 16.4089 13.255 16.3423 13.2191C16.0198 13.0466 14.4515 12.2139 14.1551 12.1033C13.8642 11.9854 13.587 12.0267 13.3675 12.3598C13.3258 12.4225 13.2842 12.4854 13.2428 12.548C12.9779 12.9481 12.7223 13.3342 12.5099 13.5802C12.3165 13.8013 12.0009 13.8293 11.736 13.7113C11.7072 13.6984 11.6741 13.6841 11.637 13.668C11.2177 13.4861 10.2877 13.0826 9.16194 12.0061C8.21243 11.0982 7.56753 9.96771 7.38092 9.62872C7.1977 9.28865 7.35575 9.08925 7.50181 8.90494L7.5099 8.89473C7.60407 8.76958 7.69547 8.66536 7.78731 8.56061C7.85337 8.48528 7.91966 8.40967 7.9874 8.32582L8.01679 8.28947C8.16062 8.11185 8.24627 8.00606 8.34278 7.78491C8.45255 7.55646 8.37434 7.32063 8.29613 7.14671C8.24232 7.02493 7.90991 6.15863 7.62456 5.41492C7.50244 5.09665 7.38893 4.80084 7.30957 4.59544C7.09689 4.04865 6.93498 4.028 6.61253 4.01326L6.58236 4.01163C6.4805 4.00609 6.36832 4 6.2448 4C5.82493 4 5.38722 4.13264 5.1224 4.423L5.09349 4.45464C4.7547 4.82472 4 5.64919 4 7.29263C4 8.93924 5.08766 10.5328 5.28893 10.8277L5.30352 10.8491C5.31563 10.8662 5.33846 10.9017 5.37169 10.9534C5.78265 11.5926 7.78413 14.706 10.7687 16.0342C13.2907 17.1573 14.0398 17.0526 14.6134 16.9214Z" fill="#3aa073"></path>
</svg>