<svg width="22" height="22" viewBox="0 0 22 22" fill="none" xmlns="http://www.w3.org/2000/svg">
<path d="M0 22L1.892 16.3244C0.931966 14.7097 0.37931 12.8252 0.37931 10.8103C0.37931 4.84 5.21931 0 11.1897 0C17.16 0 22 4.84 22 10.8103C22 16.7807 17.16 21.6207 11.1897 21.6207C9.37314 21.6207 7.66245 21.1704 6.16 20.3792L0 22Z" fill="#2CB742"/>
<path d="M18.0866 14.4081C17.5875 13.4648 15.7467 12.386 15.7467 12.386C15.3302 12.1486 14.8276 12.122 14.5902 12.5453C14.5902 12.5453 13.992 13.2626 13.8399 13.3658C13.145 13.8365 12.5013 13.8183 11.8515 13.1685L10.3415 11.6585L8.83146 10.1485C8.1817 9.49869 8.1635 8.855 8.63422 8.16011C8.73739 8.008 9.45467 7.40983 9.45467 7.40983C9.87798 7.172 9.85143 6.6698 9.61398 6.25331C9.61398 6.25331 8.53522 4.41252 7.59187 3.91335C7.19056 3.70093 6.69784 3.77528 6.37694 4.09617L5.71012 4.763C3.5947 6.87842 4.63629 9.26655 6.7517 11.382L8.68505 13.3153L10.6184 15.2487C12.7338 17.3641 15.1219 18.4057 17.2374 16.2902L17.9042 15.6234C18.2251 15.3018 18.299 14.809 18.0866 14.4081Z" fill="white"/>
</svg>
