<svg xmlns="http://www.w3.org/2000/svg" width="83" height="79" viewBox="0 0 83 79" fill="none">
    <path fill-rule="evenodd" clip-rule="evenodd" d="M29.2582 23.8219C36.4783 17.9737 43.7509 12.19 50.8906 6.24349C53.4843 4.08328 57.5421 3.52996 60.703 6.65018C64.3928 10.2925 67.9468 14.0497 71.1035 18.1751C73.8333 21.7429 76.3214 25.4788 78.5379 29.3946C80.0656 32.0933 79.3698 35.8481 76.9649 37.7975C62.1196 49.8327 47.2695 61.8618 32.4132 73.8829C29.8084 75.9905 26.0322 75.6759 23.457 73.2442C19.2822 69.3021 15.3847 65.0961 12.0358 60.4231C9.64935 57.093 7.45092 53.6165 5.31881 50.1118C3.7546 47.5405 4.60336 43.7983 6.98427 41.8669C14.405 35.8468 21.8331 29.8363 29.2582 23.8219ZM30.6857 25.7191C23.3164 31.6881 15.9447 37.654 8.5797 43.628C6.61518 45.2215 6.24507 47.1801 7.54478 49.304C8.97247 51.6377 10.4013 53.9738 11.9233 56.2446C15.8067 62.038 20.4285 67.1886 25.5163 71.9204C26.812 73.1254 28.5183 73.3935 30.0285 72.6201C30.5336 72.3615 30.9858 71.9843 31.4321 71.623C45.9499 59.8704 60.464 48.1132 74.9783 36.3564C75.2021 36.1751 75.4287 35.9966 75.6442 35.8055C77.1973 34.4287 77.6289 32.5889 76.5759 30.8013C74.9687 28.073 73.2979 25.375 71.5087 22.766C67.7735 17.3197 63.4033 12.4204 58.5809 7.93268C57.6149 7.03373 56.5086 6.48794 55.1407 6.6562C54.1699 6.77568 53.4143 7.30535 52.6797 7.90079C45.3501 13.8426 38.0173 19.7801 30.6857 25.7191Z" fill="#FAB61E"></path>
    <path fill-rule="evenodd" clip-rule="evenodd" d="M29.2582 23.8219C36.4783 17.9737 43.7509 12.19 50.8906 6.24349C53.4843 4.08328 57.5421 3.52996 60.703 6.65018C64.3928 10.2925 67.9468 14.0497 71.1035 18.1751C73.8333 21.7429 76.3214 25.4788 78.5379 29.3946C80.0656 32.0933 79.3698 35.8481 76.9649 37.7975C62.1196 49.8327 47.2695 61.8618 32.4132 73.8829C29.8084 75.9905 26.0322 75.6759 23.457 73.2442C19.2822 69.3021 15.3847 65.0961 12.0358 60.4231C9.64935 57.093 7.45092 53.6165 5.31881 50.1118C3.7546 47.5405 4.60336 43.7983 6.98427 41.8669C14.405 35.8468 21.8331 29.8363 29.2582 23.8219ZM30.6857 25.7191C23.3164 31.6881 15.9447 37.654 8.5797 43.628C6.61518 45.2215 6.24507 47.1801 7.54478 49.304C8.97247 51.6377 10.4013 53.9738 11.9233 56.2446C15.8067 62.038 20.4285 67.1886 25.5163 71.9204C26.812 73.1254 28.5183 73.3935 30.0285 72.6201C30.5336 72.3615 30.9858 71.9843 31.4321 71.623C45.9499 59.8704 60.464 48.1132 74.9783 36.3564C75.2021 36.1751 75.4287 35.9966 75.6442 35.8055C77.1973 34.4287 77.6289 32.5889 76.5759 30.8013C74.9687 28.073 73.2979 25.375 71.5087 22.766C67.7735 17.3197 63.4033 12.4204 58.5809 7.93268C57.6149 7.03373 56.5086 6.48794 55.1407 6.6562C54.1699 6.77568 53.4143 7.30535 52.6797 7.90079C45.3501 13.8426 38.0173 19.7801 30.6857 25.7191Z" fill="url(#paint0_linear)"></path>
    <path fill-rule="evenodd" clip-rule="evenodd" d="M52.9683 51.4518C46.9406 56.3342 40.9131 61.2169 34.8849 66.0987C33.6351 67.1108 32.6136 67.0077 31.6309 65.7695C25.9722 58.6397 20.3141 51.5096 14.6571 44.3787C13.688 43.1572 13.8016 42.1282 15.0128 41.1469C27.0865 31.3666 39.1606 21.5867 51.2353 11.8074C52.4691 10.8081 53.4981 10.9238 54.4902 12.1738C60.1341 19.2846 65.7771 26.3959 71.4193 33.5079C72.399 34.7428 72.2793 35.8094 71.0511 36.8044C65.0241 41.6875 58.9961 46.5695 52.9683 51.4518ZM16.5778 42.9817C22.2153 50.086 27.8041 57.129 33.3946 64.1742C45.4538 54.4065 57.476 44.6687 69.4982 34.9309C63.8766 27.8466 58.2875 20.8032 52.6814 13.7384C40.6357 23.4952 28.6262 33.2227 16.5778 42.9817Z" fill="#FAB61E"></path>
    <path fill-rule="evenodd" clip-rule="evenodd" d="M52.9683 51.4518C46.9406 56.3342 40.9131 61.2169 34.8849 66.0987C33.6351 67.1108 32.6136 67.0077 31.6309 65.7695C25.9722 58.6397 20.3141 51.5096 14.6571 44.3787C13.688 43.1572 13.8016 42.1282 15.0128 41.1469C27.0865 31.3666 39.1606 21.5867 51.2353 11.8074C52.4691 10.8081 53.4981 10.9238 54.4902 12.1738C60.1341 19.2846 65.7771 26.3959 71.4193 33.5079C72.399 34.7428 72.2793 35.8094 71.0511 36.8044C65.0241 41.6875 58.9961 46.5695 52.9683 51.4518ZM16.5778 42.9817C22.2153 50.086 27.8041 57.129 33.3946 64.1742C45.4538 54.4065 57.476 44.6687 69.4982 34.9309C63.8766 27.8466 58.2875 20.8032 52.6814 13.7384C40.6357 23.4952 28.6262 33.2227 16.5778 42.9817Z" fill="url(#paint1_linear)"></path>
                            <path fill-rule="evenodd" clip-rule="evenodd" d="M16.8006 60.1802C16.5021 59.804 16.1971 59.4329 15.9064 59.0508C14.8069 57.6068 15.0136 55.3714 16.3432 54.2736C17.7103 53.1451 19.9323 53.3866 21.1119 54.8091C21.7399 55.5664 22.3513 56.339 22.948 57.1221C24.071 58.5953 23.8365 60.8589 22.4636 61.9462C21.0917 63.033 18.8609 62.7355 17.6968 61.3082C17.3934 60.9361 17.099 60.5565 16.8006 60.1802ZM18.6686 58.6846C19.0254 59.1342 19.3814 59.5843 19.739 60.0333C20.1587 60.5601 20.6235 60.4058 21.0536 60.0758C21.4878 59.7427 21.6341 59.3162 21.2525 58.8333C20.5411 57.9323 19.8256 57.0345 19.1124 56.1351C18.7297 55.6523 18.2916 55.7083 17.8628 56.0415C17.4207 56.3849 17.193 56.8067 17.6002 57.3343C17.9511 57.7887 18.3124 58.2343 18.6686 58.6846Z" fill="#FAB61E"></path>
                            <path fill-rule="evenodd" clip-rule="evenodd" d="M16.8006 60.1802C16.5021 59.804 16.1971 59.4329 15.9064 59.0508C14.8069 57.6068 15.0136 55.3714 16.3432 54.2736C17.7103 53.1451 19.9323 53.3866 21.1119 54.8091C21.7399 55.5664 22.3513 56.339 22.948 57.1221C24.071 58.5953 23.8365 60.8589 22.4636 61.9462C21.0917 63.033 18.8609 62.7355 17.6968 61.3082C17.3934 60.9361 17.099 60.5565 16.8006 60.1802ZM18.6686 58.6846C19.0254 59.1342 19.3814 59.5843 19.739 60.0333C20.1587 60.5601 20.6235 60.4058 21.0536 60.0758C21.4878 59.7427 21.6341 59.3162 21.2525 58.8333C20.5411 57.9323 19.8256 57.0345 19.1124 56.1351C18.7297 55.6523 18.2916 55.7083 17.8628 56.0415C17.4207 56.3849 17.193 56.8067 17.6002 57.3343C17.9511 57.7887 18.3124 58.2343 18.6686 58.6846Z" fill="url(#paint2_linear)"></path>
                            <path fill-rule="evenodd" clip-rule="evenodd" d="M66.2563 20.1696C67.0466 21.1653 67.8303 22.1661 68.6295 23.1542C68.9832 23.5915 69.0793 24.0258 68.6136 24.4153C68.1507 24.8025 67.7177 24.6411 67.373 24.2086C65.774 22.2019 64.1792 20.1916 62.5875 18.1787C62.2432 17.7435 62.1801 17.2865 62.6654 16.9175C63.1463 16.5517 63.5432 16.7356 63.8892 17.1805C64.6692 18.1839 65.4662 19.174 66.2563 20.1696Z" fill="#FAB61E"></path>
                            <path fill-rule="evenodd" clip-rule="evenodd" d="M66.2563 20.1696C67.0466 21.1653 67.8303 22.1661 68.6295 23.1542C68.9832 23.5915 69.0793 24.0258 68.6136 24.4153C68.1507 24.8025 67.7177 24.6411 67.373 24.2086C65.774 22.2019 64.1792 20.1916 62.5875 18.1787C62.2432 17.7435 62.1801 17.2865 62.6654 16.9175C63.1463 16.5517 63.5432 16.7356 63.8892 17.1805C64.6692 18.1839 65.4662 19.174 66.2563 20.1696Z" fill="url(#paint3_linear)"></path>
                            <path fill-rule="evenodd" clip-rule="evenodd" d="M70.7612 25.6554C70.6532 26.022 70.6461 26.4866 70.4127 26.7315C70.0872 27.0734 69.6088 27.0037 69.297 26.596C68.9891 26.1934 69.0181 25.7082 69.4345 25.4699C69.7286 25.3015 70.1741 25.4036 70.5521 25.385C70.6218 25.4752 70.6915 25.5653 70.7612 25.6554Z" fill="#FAB61E"></path>
                            <path fill-rule="evenodd" clip-rule="evenodd" d="M70.7612 25.6554C70.6532 26.022 70.6461 26.4866 70.4127 26.7315C70.0872 27.0734 69.6088 27.0037 69.297 26.596C68.9891 26.1934 69.0181 25.7082 69.4345 25.4699C69.7286 25.3015 70.1741 25.4036 70.5521 25.385C70.6218 25.4752 70.6915 25.5653 70.7612 25.6554Z" fill="url(#paint4_linear)"></path>
                            <path fill-rule="evenodd" clip-rule="evenodd" d="M39.848 49.6393C39.7089 49.0245 39.5677 48.4479 39.4496 47.8667C39.2512 46.8884 38.5607 46.5032 37.6274 46.8646C35.6675 47.624 35.6675 47.624 34.368 45.9865C34.3232 45.93 34.2785 45.8737 34.2337 45.8172C33.0797 44.3628 33.0797 44.3628 34.0865 42.8247C34.8204 41.7034 34.6204 40.9985 33.4177 40.468C33.1555 40.3525 32.8909 40.2419 32.632 40.1199C32.0707 39.8554 31.8098 39.4097 31.8745 38.7834C31.9492 38.0632 32.0324 37.3438 32.1104 36.624C32.1853 35.9306 32.574 35.541 33.2443 35.4165C33.5732 35.3555 33.9005 35.287 34.2283 35.2207C35.1794 35.0285 35.5865 34.2845 35.2372 33.3705C34.464 31.3468 34.4723 31.4373 36.0881 30.1311C37.7378 28.7974 37.633 28.7516 39.4604 29.9845C40.2282 30.5025 41.0523 30.2595 41.4259 29.415C42.2778 27.4887 42.2778 27.4887 44.3589 27.7178C44.5488 27.7387 44.739 27.7595 44.929 27.7805C46.2116 27.9226 46.3919 28.1086 46.6357 29.3868C46.7232 29.8455 46.7737 30.3978 47.0552 30.7106C47.4255 31.122 47.9916 31.3627 48.6013 30.9774C48.8391 30.8272 49.1326 30.7672 49.4003 30.6649C50.3076 30.3179 50.6673 30.4113 51.2657 31.158C51.6711 31.664 52.0668 32.1781 52.4766 32.6805C52.9582 33.271 52.9273 33.859 52.4983 34.4604C52.3033 34.7335 52.1136 35.0111 51.9297 35.292C51.4576 36.0138 51.6933 36.9294 52.4718 37.2445C54.5811 38.0984 54.4471 38.2834 54.1849 40.2391C54.1464 40.5261 54.1241 40.8152 54.0879 41.1025C53.9797 41.9637 53.6939 42.2768 52.8535 42.4545C52.5496 42.519 52.2438 42.5735 51.9393 42.6351C51.0263 42.8198 50.6008 43.571 50.9338 44.435C51.749 46.5495 51.7213 46.4255 50.0232 47.7755C49.9667 47.8203 49.9111 47.8661 49.8551 47.9115C48.4752 49.0291 48.4752 49.0291 47.0134 48.0418C45.8436 47.2516 45.1879 47.455 44.6093 48.7878C43.9509 50.3048 43.8578 50.359 42.234 50.1804C41.7592 50.128 41.2778 50.1071 40.8111 50.013C40.5 49.9503 40.2096 49.7839 39.848 49.6393ZM51.7486 40.3161C51.8972 39.5827 51.9137 39.5312 51.3279 39.3409C50.2739 38.9984 49.8414 38.3297 49.5057 37.2264C49.1098 35.9251 49.1392 34.9278 49.9973 33.9128C50.0844 33.8096 50.0481 33.4897 49.9501 33.3679C49.8525 33.2464 49.6016 33.195 49.4248 33.2085C49.2191 33.2242 49.0078 33.3195 48.8217 33.4225C48.0728 33.8363 47.37 33.8199 46.6943 33.2631C46.5492 33.1435 46.3734 33.0411 46.1951 32.9871C45.0674 32.6451 44.5365 31.8612 44.4916 30.7003C44.472 30.1914 44.249 29.9415 43.6256 30.1243C43.4008 31.6127 42.4873 32.428 40.9463 32.5102C40.9015 32.5126 40.8558 32.5416 40.8147 32.5653C40.0258 33.0193 39.3125 32.8735 38.6435 32.3047C38.4805 32.1661 38.3068 32.0112 38.1113 31.949C37.939 31.8941 37.6906 31.8973 37.5493 31.9898C37.4456 32.0577 37.3955 32.3296 37.4357 32.4788C37.5418 32.8712 37.7442 33.2376 37.8422 33.6314C37.9148 33.9221 38.0042 34.3074 37.8787 34.534C37.1054 35.9316 36.6478 37.7221 34.5061 37.5891C34.4707 37.587 34.4321 37.6394 34.2828 37.7483C34.3695 37.9449 34.4272 38.329 34.5734 38.3669C35.9903 38.7345 36.6692 39.6612 36.7417 41.0987C36.7426 41.1213 36.7577 41.1442 36.7697 41.1649C37.2486 41.98 37.1235 42.7203 36.511 43.414C36.37 43.5738 36.236 43.7617 36.1701 43.9605C36.1199 44.112 36.1205 44.3589 36.211 44.4588C36.3254 44.5847 36.574 44.6893 36.7303 44.6525C37.1216 44.5605 37.4848 44.3439 37.8763 44.2533C38.1861 44.1813 38.5777 44.1052 38.8359 44.232C40.2722 44.9379 41.8904 45.5177 41.7951 47.607C41.7935 47.6428 41.844 47.6805 41.8615 47.7051C42.3338 47.9263 42.5766 47.7342 42.7029 47.2764C43.0068 46.1745 43.633 45.4537 44.8573 45.451C44.9721 45.4508 45.1017 45.4152 45.1997 45.3548C46.1405 44.7764 46.95 45.0311 47.75 45.6787C47.9631 45.8513 48.3244 45.8374 48.6176 45.9091C48.6141 45.5848 48.7137 45.2105 48.5884 44.9451C48.173 44.0643 48.3077 43.3668 48.7387 42.4586C49.3957 41.0738 50.1923 40.1908 51.7486 40.3161Z" fill="#FAB61E"></path>
                            <path fill-rule="evenodd" clip-rule="evenodd" d="M39.848 49.6393C39.7089 49.0245 39.5677 48.4479 39.4496 47.8667C39.2512 46.8884 38.5607 46.5032 37.6274 46.8646C35.6675 47.624 35.6675 47.624 34.368 45.9865C34.3232 45.93 34.2785 45.8737 34.2337 45.8172C33.0797 44.3628 33.0797 44.3628 34.0865 42.8247C34.8204 41.7034 34.6204 40.9985 33.4177 40.468C33.1555 40.3525 32.8909 40.2419 32.632 40.1199C32.0707 39.8554 31.8098 39.4097 31.8745 38.7834C31.9492 38.0632 32.0324 37.3438 32.1104 36.624C32.1853 35.9306 32.574 35.541 33.2443 35.4165C33.5732 35.3555 33.9005 35.287 34.2283 35.2207C35.1794 35.0285 35.5865 34.2845 35.2372 33.3705C34.464 31.3468 34.4723 31.4373 36.0881 30.1311C37.7378 28.7974 37.633 28.7516 39.4604 29.9845C40.2282 30.5025 41.0523 30.2595 41.4259 29.415C42.2778 27.4887 42.2778 27.4887 44.3589 27.7178C44.5488 27.7387 44.739 27.7595 44.929 27.7805C46.2116 27.9226 46.3919 28.1086 46.6357 29.3868C46.7232 29.8455 46.7737 30.3978 47.0552 30.7106C47.4255 31.122 47.9916 31.3627 48.6013 30.9774C48.8391 30.8272 49.1326 30.7672 49.4003 30.6649C50.3076 30.3179 50.6673 30.4113 51.2657 31.158C51.6711 31.664 52.0668 32.1781 52.4766 32.6805C52.9582 33.271 52.9273 33.859 52.4983 34.4604C52.3033 34.7335 52.1136 35.0111 51.9297 35.292C51.4576 36.0138 51.6933 36.9294 52.4718 37.2445C54.5811 38.0984 54.4471 38.2834 54.1849 40.2391C54.1464 40.5261 54.1241 40.8152 54.0879 41.1025C53.9797 41.9637 53.6939 42.2768 52.8535 42.4545C52.5496 42.519 52.2438 42.5735 51.9393 42.6351C51.0263 42.8198 50.6008 43.571 50.9338 44.435C51.749 46.5495 51.7213 46.4255 50.0232 47.7755C49.9667 47.8203 49.9111 47.8661 49.8551 47.9115C48.4752 49.0291 48.4752 49.0291 47.0134 48.0418C45.8436 47.2516 45.1879 47.455 44.6093 48.7878C43.9509 50.3048 43.8578 50.359 42.234 50.1804C41.7592 50.128 41.2778 50.1071 40.8111 50.013C40.5 49.9503 40.2096 49.7839 39.848 49.6393ZM51.7486 40.3161C51.8972 39.5827 51.9137 39.5312 51.3279 39.3409C50.2739 38.9984 49.8414 38.3297 49.5057 37.2264C49.1098 35.9251 49.1392 34.9278 49.9973 33.9128C50.0844 33.8096 50.0481 33.4897 49.9501 33.3679C49.8525 33.2464 49.6016 33.195 49.4248 33.2085C49.2191 33.2242 49.0078 33.3195 48.8217 33.4225C48.0728 33.8363 47.37 33.8199 46.6943 33.2631C46.5492 33.1435 46.3734 33.0411 46.1951 32.9871C45.0674 32.6451 44.5365 31.8612 44.4916 30.7003C44.472 30.1914 44.249 29.9415 43.6256 30.1243C43.4008 31.6127 42.4873 32.428 40.9463 32.5102C40.9015 32.5126 40.8558 32.5416 40.8147 32.5653C40.0258 33.0193 39.3125 32.8735 38.6435 32.3047C38.4805 32.1661 38.3068 32.0112 38.1113 31.949C37.939 31.8941 37.6906 31.8973 37.5493 31.9898C37.4456 32.0577 37.3955 32.3296 37.4357 32.4788C37.5418 32.8712 37.7442 33.2376 37.8422 33.6314C37.9148 33.9221 38.0042 34.3074 37.8787 34.534C37.1054 35.9316 36.6478 37.7221 34.5061 37.5891C34.4707 37.587 34.4321 37.6394 34.2828 37.7483C34.3695 37.9449 34.4272 38.329 34.5734 38.3669C35.9903 38.7345 36.6692 39.6612 36.7417 41.0987C36.7426 41.1213 36.7577 41.1442 36.7697 41.1649C37.2486 41.98 37.1235 42.7203 36.511 43.414C36.37 43.5738 36.236 43.7617 36.1701 43.9605C36.1199 44.112 36.1205 44.3589 36.211 44.4588C36.3254 44.5847 36.574 44.6893 36.7303 44.6525C37.1216 44.5605 37.4848 44.3439 37.8763 44.2533C38.1861 44.1813 38.5777 44.1052 38.8359 44.232C40.2722 44.9379 41.8904 45.5177 41.7951 47.607C41.7935 47.6428 41.844 47.6805 41.8615 47.7051C42.3338 47.9263 42.5766 47.7342 42.7029 47.2764C43.0068 46.1745 43.633 45.4537 44.8573 45.451C44.9721 45.4508 45.1017 45.4152 45.1997 45.3548C46.1405 44.7764 46.95 45.0311 47.75 45.6787C47.9631 45.8513 48.3244 45.8374 48.6176 45.9091C48.6141 45.5848 48.7137 45.2105 48.5884 44.9451C48.173 44.0643 48.3077 43.3668 48.7387 42.4586C49.3957 41.0738 50.1923 40.1908 51.7486 40.3161Z" fill="url(#paint5_linear)"></path>
                            <path fill-rule="evenodd" clip-rule="evenodd" d="M46.5693 36.1139C48.0379 37.9652 47.696 41.0067 45.8538 42.4821C44.049 43.9272 41.0367 43.6095 39.5736 41.8195C38.1144 40.0341 38.4509 36.9095 40.262 35.4265C42.0869 33.9322 45.0988 34.2603 46.5693 36.1139ZM41.4144 40.3103C42.2552 41.3608 43.382 41.4851 44.4216 40.642C45.4488 39.8086 45.5828 38.6315 44.7689 37.5899C43.9387 36.5274 42.7396 36.4022 41.6963 37.2694C40.669 38.1233 40.5647 39.2483 41.4144 40.3103Z" fill="#FAB61E"></path>
                            <path fill-rule="evenodd" clip-rule="evenodd" d="M46.5693 36.1139C48.0379 37.9652 47.696 41.0067 45.8538 42.4821C44.049 43.9272 41.0367 43.6095 39.5736 41.8195C38.1144 40.0341 38.4509 36.9095 40.262 35.4265C42.0869 33.9322 45.0988 34.2603 46.5693 36.1139ZM41.4144 40.3103C42.2552 41.3608 43.382 41.4851 44.4216 40.642C45.4488 39.8086 45.5828 38.6315 44.7689 37.5899C43.9387 36.5274 42.7396 36.4022 41.6963 37.2694C40.669 38.1233 40.5647 39.2483 41.4144 40.3103Z" fill="url(#paint6_linear)"></path>
                            <defs>
                                <linearGradient id="paint0_linear" x1="60.3857" y1="39.1176" x2="18.4893" y2="22.425" gradientUnits="userSpaceOnUse">
                                    <stop stopColor="#FB921D"></stop>
                                    <stop offset="1" stopColor="#FBB831"></stop>
                                </linearGradient>
                                <linearGradient id="paint1_linear" x1="56.5653" y1="39.0972" x2="24.2436" y2="27.8148" gradientUnits="userSpaceOnUse">
                                    <stop stopColor="#FB921D"></stop>
                                    <stop offset="1" stopColor="#FBB831"></stop>
                                </linearGradient>
                                <linearGradient id="paint2_linear" x1="22.1533" y1="59.2927" x2="15.1523" y2="59.802" gradientUnits="userSpaceOnUse">
                                    <stop stopColor="#FB921D"></stop>
                                    <stop offset="1" stopColor="#FBB831"></stop>
                                </linearGradient>
                                <linearGradient id="paint3_linear" x1="67.4876" y1="22.4947" x2="65.6861" y2="23.4813" gradientUnits="userSpaceOnUse">
                                    <stop stopColor="#FB921D"></stop>
                                    <stop offset="1" stopColor="#FBB831"></stop>
                                </linearGradient>
                                <linearGradient id="paint4_linear" x1="70.5235" y1="26.1729" x2="69.046" y2="25.9558" gradientUnits="userSpaceOnUse">
                                    <stop stopColor="#FB921D"></stop>
                                    <stop offset="1" stopColor="#FBB831"></stop>
                                </linearGradient>
                                <linearGradient id="paint5_linear" x1="50.4494" y1="40.783" x2="30.4874" y2="38.6012" gradientUnits="userSpaceOnUse">
                                    <stop stopColor="#FB921D"></stop>
                                    <stop offset="1" stopColor="#FBB831"></stop>
                                </linearGradient>
                                <linearGradient id="paint6_linear" x1="46.009" y1="39.6919" x2="38.0035" y2="38.7999" gradientUnits="userSpaceOnUse">
                                    <stop stopColor="#FB921D"></stop>
                                    <stop offset="1" stopColor="#FBB831"></stop>
                                </linearGradient>
                            </defs>
                        </svg>