<svg xmlns="http://www.w3.org/2000/svg" width="119" height="84" viewBox="0 0 119 84" fill="none">
                            <path opacity="0.5" d="M13 16.6L0.600006 17.4V6.40001L15 0.200012H30.3V75H13V16.6Z" fill="#ffffff"></path>
                            <path d="M80.2199 37.4976C79.586 37.4976 79.0723 38.0166 79.0723 38.6567V39.9694C79.0723 40.6095 79.586 41.1285 80.2199 41.1285C80.8539 41.1285 81.3676 40.6095 81.3676 39.9694V38.6567C81.3676 38.0166 80.8537 37.4976 80.2199 37.4976Z" fill="#4172E3"></path>
                            <path d="M96.6217 41.1285C97.2556 41.1285 97.7693 40.6095 97.7693 39.9694V38.6567C97.7693 38.0166 97.2556 37.4976 96.6217 37.4976C95.9877 37.4976 95.4741 38.0166 95.4741 38.6567V39.9694C95.4741 40.6097 95.9877 41.1285 96.6217 41.1285Z" fill="#4172E3"></path>
                            <path d="M89.676 46.7444C90.9414 46.7444 92.1086 46.0493 92.7225 44.9304C93.0296 44.3704 92.8292 43.6648 92.2748 43.3546C91.7204 43.0442 91.0219 43.2468 90.7148 43.8067C90.5053 44.1886 90.1072 44.4259 89.676 44.4259C89.2457 44.4259 88.8483 44.1897 88.6385 43.8093C88.3297 43.2499 87.6306 43.0493 87.0775 43.3609C86.5237 43.6725 86.3251 44.3786 86.6336 44.9378C87.2482 46.0522 88.4141 46.7444 89.676 46.7444Z" fill="#4172E3"></path>
                            <path d="M76.3264 35.2664C76.5393 35.4412 76.7953 35.5264 77.0499 35.5264C77.3835 35.5264 77.7141 35.3803 77.9409 35.0985C78.551 34.341 79.4884 33.9406 80.4496 34.0267C81.0803 34.0843 81.6384 33.6124 81.6944 32.9747C81.7504 32.337 81.2841 31.7741 80.6528 31.7174C78.9317 31.5628 77.252 32.2798 76.1604 33.6356C75.7604 34.1322 75.8346 34.8624 76.3264 35.2664Z" fill="#4172E3"></path>
                            <path d="M97.2641 34.0266C98.2247 33.9405 99.1629 34.341 99.7728 35.0983C99.9995 35.3801 100.33 35.5261 100.664 35.5261C100.918 35.5261 101.174 35.441 101.387 35.2663C101.879 34.8623 101.953 34.1323 101.553 33.6356C100.462 32.2799 98.7837 31.5625 97.061 31.7173C96.4297 31.774 95.9634 32.3369 96.0195 32.9747C96.0755 33.6124 96.634 34.0842 97.2641 34.0266Z" fill="#4172E3"></path>
                            <path d="M117.484 44.13L114.1 39.2451V37.7102C114.38 36.9681 114.534 36.1644 114.534 35.3245C114.534 34.4647 114.372 33.6428 114.08 32.8861C114.093 32.8159 114.1 32.7439 114.1 32.67V30.4765C114.1 16.7165 103.017 5.52185 89.3948 5.52185C83.534 5.52185 77.8516 7.63159 73.3939 11.4624C72.9113 11.8772 72.8528 12.6087 73.2635 13.0965C73.6742 13.5842 74.3986 13.6432 74.8812 13.2282C78.9242 9.7537 84.0785 7.84025 89.3949 7.84025C101.558 7.84025 111.489 17.6786 111.798 29.8905C110.761 29.1238 109.498 28.6522 108.131 28.5983C108.053 27.4697 107.584 26.4186 106.786 25.6072C105.902 24.7081 104.724 24.2129 103.469 24.2129H74.235C71.7758 24.2129 69.7451 26.1545 69.5734 28.5996C68.6619 28.6434 67.7978 28.8727 67.0174 29.2514C67.2619 24.5398 68.916 20.1202 71.8408 16.4032C72.2351 15.9019 72.1526 15.1727 71.6566 14.7744C71.1605 14.3761 70.4384 14.4594 70.0441 14.9607C66.5408 19.4126 64.6893 24.7778 64.6893 30.4765V31.1247C63.7759 32.2771 63.2278 33.7371 63.2278 35.3247C63.2278 36.9123 63.7759 38.3722 64.6893 39.5245V56.7762C64.6893 60.2924 66.9244 63.2991 70.1031 64.3538C70.0505 64.4527 69.998 64.5518 69.9469 64.6521H67.3704C64.9606 64.6521 63 66.6325 63 69.0667V79.4228C63 81.56 64.7214 83.2988 66.8373 83.2988H110.229C112.345 83.2988 114.066 81.56 114.066 79.4228V69.0667C114.066 66.6325 112.106 64.6521 109.696 64.6521H108.305C108.278 64.5986 108.249 64.5461 108.222 64.4929C110.845 63.7986 112.951 61.787 113.76 59.1C113.798 58.9717 113.813 58.8422 113.807 58.7155C114.897 57.7141 115.583 56.2706 115.583 54.6685C115.583 54.1127 115.5 53.5762 115.347 53.0703L117.207 50.8114C118.776 48.9074 118.89 46.1598 117.484 44.13ZM110.167 57.8207C108.446 57.8207 107.046 56.4067 107.046 54.6685C107.046 52.9305 108.446 51.5164 110.167 51.5164C111.888 51.5164 113.288 52.9305 113.288 54.6685C113.288 56.4067 111.888 57.8207 110.167 57.8207ZM112.239 35.3247C112.239 37.7256 110.331 39.6836 107.967 39.7369C108.045 39.0258 108.087 38.3037 108.087 37.5718L108.131 30.9187C110.419 31.0565 112.239 32.9796 112.239 35.3247ZM74.235 26.5315H103.469C104.108 26.5315 104.708 26.7836 105.158 27.2411C105.608 27.6986 105.853 28.3057 105.849 28.9505L105.791 37.564C105.791 47.0306 98.1665 54.7323 88.7943 54.7323C79.4223 54.7323 71.7975 47.0306 71.7975 37.5718L71.8561 28.918C71.8648 27.6023 72.9321 26.5315 74.235 26.5315ZM86.3497 57.0363C86.4279 57.0056 86.5025 56.9672 86.5713 56.9207C87.301 57.0057 88.0424 57.0509 88.7943 57.0509C89.7413 57.0509 90.6723 56.9804 91.5832 56.8465C91.6735 56.9227 91.7757 56.9849 91.8865 57.0305V58.3198C91.8865 59.5139 90.9248 60.4853 89.7427 60.4853H88.4937C87.3115 60.4853 86.3497 59.5139 86.3497 58.3198V57.0363ZM65.5232 35.3247C65.5232 33.0083 67.2988 31.1044 69.5471 30.9251L69.5023 37.5641C69.5023 38.2963 69.5439 39.0187 69.6221 39.7301C67.3383 39.5878 65.5232 37.6667 65.5232 35.3247ZM66.9845 56.7764V41.3816C67.8642 41.8145 68.8513 42.0579 69.8938 42.0579C69.9357 42.0579 69.9778 42.0544 70.0198 42.0536C71.4315 48.0782 75.6195 53.0295 81.1386 55.4492C77.2205 56.5351 73.7784 58.9368 71.3732 62.3042C68.8314 61.7411 66.9845 59.4693 66.9845 56.7764ZM111.771 69.0668V79.4229C111.771 80.2818 111.079 80.9806 110.229 80.9806H66.8375C65.9872 80.9806 65.2954 80.2818 65.2954 79.4229V69.0668C65.2954 67.911 66.2263 66.9707 67.3706 66.9707H79.7001C80.3341 66.9707 80.8478 66.4517 80.8478 65.8115C80.8478 65.1713 80.3341 64.6523 79.7001 64.6523H72.5803C75.0977 60.5122 79.3057 57.8006 84.0547 57.2305V58.3196C84.0547 60.7921 86.0462 62.8036 88.4938 62.8036H89.7429C92.1905 62.8036 94.1819 60.7921 94.1819 58.3196V57.2284C98.9374 57.7943 103.152 60.5074 105.672 64.6523H84.2905C83.6565 64.6523 83.1428 65.1713 83.1428 65.8115C83.1428 66.4517 83.6565 66.9707 84.2905 66.9707H109.696C110.84 66.9707 111.771 67.9109 111.771 69.0668ZM106.937 62.3861C104.446 58.857 100.822 56.3747 96.7005 55.3385C102.108 52.8751 106.197 47.9668 107.578 42.0191C107.671 42.0436 107.768 42.0578 107.868 42.0578C109.34 42.0578 110.701 41.5726 111.805 40.7535V49.4544C111.288 49.2883 110.738 49.198 110.167 49.198C107.181 49.198 104.751 51.6521 104.751 54.6685C104.751 57.6849 107.181 60.1391 110.167 60.1391C110.358 60.1391 110.547 60.1288 110.733 60.1091C109.846 61.3455 108.488 62.181 106.937 62.3861ZM115.443 49.3287L114.12 50.9348C114.114 50.9277 114.107 50.9209 114.1 50.9138V43.2895L115.603 45.459C116.417 46.6346 116.352 48.226 115.443 49.3287Z" fill="#4172E3"></path>
                            <path d="M48.3867 18.3729C49.1418 18.3729 49.7539 17.7546 49.7539 16.9919C49.7539 16.2292 49.1418 15.611 48.3867 15.611C47.6316 15.611 47.0195 16.2292 47.0195 16.9919C47.0195 17.7546 47.6316 18.3729 48.3867 18.3729Z" fill="#4172E3"></path>
                            <path d="M51.5312 5.25365H49.7539V3.87268C49.7539 3.10996 49.1418 2.4917 48.3867 2.4917C47.6316 2.4917 47.0195 3.10996 47.0195 3.87268V5.25365H40.7988V3.87268C40.7988 3.10996 40.1867 2.4917 39.4316 2.4917C38.6765 2.4917 38.0645 3.10996 38.0645 3.87268V5.25365H31.9121V3.87268C31.9121 3.10996 31.3 2.4917 30.5449 2.4917C29.7898 2.4917 29.1777 3.10996 29.1777 3.87268V5.25365H27.4688C24.4533 5.25365 22 7.73168 22 10.7776V32.3208C22 35.3667 24.4533 37.8447 27.4688 37.8447H37.9277C38.6828 37.8447 39.2949 37.2265 39.2949 36.4637C39.2949 35.701 38.6828 35.0828 37.9277 35.0828H27.4688C25.961 35.0828 24.7344 33.8438 24.7344 32.3208V10.7776C24.7344 9.25462 25.961 8.01561 27.4688 8.01561H29.1777V9.39659C29.1777 10.1593 29.7898 10.7776 30.5449 10.7776C31.3 10.7776 31.9121 10.1593 31.9121 9.39659V8.01561H38.0645V9.39659C38.0645 10.1593 38.6765 10.7776 39.4316 10.7776C40.1867 10.7776 40.7988 10.1593 40.7988 9.39659V8.01561H47.0195V9.39659C47.0195 10.1593 47.6316 10.7776 48.3867 10.7776C49.1418 10.7776 49.7539 10.1593 49.7539 9.39659V8.01561H51.5312C53.039 8.01561 54.2656 9.25462 54.2656 10.7776V18.6491C54.2656 19.4119 54.8777 20.0301 55.6328 20.0301C56.3879 20.0301 57 19.4119 57 18.6491V10.7776C57 7.73168 54.5467 5.25365 51.5312 5.25365Z" fill="#4172E3"></path>
                            <path d="M48.7285 21.1349C44.1676 21.1349 40.457 24.8829 40.457 29.4898C40.457 34.0968 44.1676 37.8447 48.7285 37.8447C53.2895 37.8447 57 34.0968 57 29.4898C57 24.8829 53.2895 21.1349 48.7285 21.1349ZM48.7285 35.0828C45.6754 35.0828 43.1914 32.5738 43.1914 29.4898C43.1914 26.4058 45.6754 23.8968 48.7285 23.8968C51.7817 23.8968 54.2656 26.4058 54.2656 29.4898C54.2656 32.5738 51.7817 35.0828 48.7285 35.0828Z" fill="#4172E3"></path>
                            <path d="M50.7109 28.1089H50.0957V26.6588C50.0957 25.8961 49.4836 25.2778 48.7285 25.2778C47.9734 25.2778 47.3613 25.8961 47.3613 26.6588V29.4899C47.3613 30.2526 47.9734 30.8708 48.7285 30.8708H50.7109C51.466 30.8708 52.0781 30.2526 52.0781 29.4899C52.0781 28.7271 51.466 28.1089 50.7109 28.1089Z" fill="#4172E3"></path>
                            <path d="M42.4395 18.3729C43.1945 18.3729 43.8066 17.7546 43.8066 16.9919C43.8066 16.2292 43.1945 15.611 42.4395 15.611C41.6844 15.611 41.0723 16.2292 41.0723 16.9919C41.0723 17.7546 41.6844 18.3729 42.4395 18.3729Z" fill="#4172E3"></path>
                            <path d="M36.4922 24.3802C37.2473 24.3802 37.8594 23.762 37.8594 22.9993C37.8594 22.2366 37.2473 21.6183 36.4922 21.6183C35.7371 21.6183 35.125 22.2366 35.125 22.9993C35.125 23.762 35.7371 24.3802 36.4922 24.3802Z" fill="#4172E3"></path>
                            <path d="M30.5449 18.3729C31.3 18.3729 31.9121 17.7546 31.9121 16.9919C31.9121 16.2292 31.3 15.611 30.5449 15.611C29.7898 15.611 29.1777 16.2292 29.1777 16.9919C29.1777 17.7546 29.7898 18.3729 30.5449 18.3729Z" fill="#4172E3"></path>
                            <path d="M30.5449 24.3802C31.3 24.3802 31.9121 23.762 31.9121 22.9993C31.9121 22.2366 31.3 21.6183 30.5449 21.6183C29.7898 21.6183 29.1777 22.2366 29.1777 22.9993C29.1777 23.762 29.7898 24.3802 30.5449 24.3802Z" fill="#4172E3"></path>
                            <path d="M30.5449 30.3875C31.3 30.3875 31.9121 29.7692 31.9121 29.0065C31.9121 28.2438 31.3 27.6255 30.5449 27.6255C29.7898 27.6255 29.1777 28.2438 29.1777 29.0065C29.1777 29.7692 29.7898 30.3875 30.5449 30.3875Z" fill="#4172E3"></path>
                            <path d="M36.4922 30.3875C37.2473 30.3875 37.8594 29.7692 37.8594 29.0065C37.8594 28.2438 37.2473 27.6255 36.4922 27.6255C35.7371 27.6255 35.125 28.2438 35.125 29.0065C35.125 29.7692 35.7371 30.3875 36.4922 30.3875Z" fill="#4172E3"></path>
                            <path d="M36.4922 18.3729C37.2473 18.3729 37.8594 17.7546 37.8594 16.9919C37.8594 16.2292 37.2473 15.611 36.4922 15.611C35.7371 15.611 35.125 16.2292 35.125 16.9919C35.125 17.7546 35.7371 18.3729 36.4922 18.3729Z" fill="#4172E3"></path>
                        </svg>