<svg xmlns="http://www.w3.org/2000/svg" width="143" height="88" viewBox="0 0 143 88" fill="none">
                            <path opacity="0.5" d="M29.5 75.6C18.9666 75.6 9.33331 74.8 0.599976 73.2V59.3H22.8C26.8 59.3 29.6 58.9 31.2 58.1C32.8 57.3 33.6 55.8667 33.6 53.8V51.4C33.6 47.4667 30.7 45.4 24.9 45.2L6.89998 44.4V31.1L24.1 30C27.1 29.8667 29.2666 29.4 30.6 28.6C32 27.8 32.7 26.5 32.7 24.7V23C32.7 20.7333 31.9 19.1 30.3 18.1C28.7666 17.1 26.1333 16.6 22.4 16.6H1.89998V2.80001C12.3 1.06668 21.0666 0.200012 28.2 0.200012C35.1333 0.200012 40.4666 1.76668 44.2 4.90001C47.9333 7.96668 49.8 12.6 49.8 18.8V24.1C49.8 31.2333 46.8666 35.7667 41 37.7C44 38.6333 46.4 40.5333 48.2 43.4C50 46.2 50.9 49.6667 50.9 53.8V57.1C50.9 63.0333 49 67.6 45.2 70.8C41.4666 74 36.2333 75.6 29.5 75.6Z" fill="#fff"></path>
                            <path d="M56.9278 70.5202C56.9098 70.4306 56.8835 70.3423 56.8488 70.2569C56.8141 70.1728 56.7711 70.0916 56.7212 70.0159C56.6713 69.9389 56.613 69.8675 56.5493 69.803C56.4855 69.7386 56.4147 69.6798 56.3385 69.6293C56.2636 69.5789 56.1832 69.5355 56.0986 69.5005C56.0154 69.4654 55.928 69.4374 55.8393 69.4206C55.6604 69.3842 55.4759 69.3842 55.2984 69.4206C55.2097 69.4374 55.1223 69.4654 55.0377 69.5005C54.9545 69.5355 54.8741 69.5789 54.7992 69.6293C54.7229 69.6798 54.6522 69.7386 54.5884 69.803C54.5246 69.8675 54.4664 69.9389 54.4165 70.0159C54.3652 70.0916 54.3236 70.1728 54.2889 70.2569C54.2542 70.3423 54.2265 70.4306 54.2099 70.5202C54.1918 70.6098 54.1821 70.7023 54.1821 70.7933C54.1821 70.8844 54.1918 70.9768 54.2099 71.0665C54.2265 71.1561 54.2542 71.2444 54.2889 71.3284C54.3236 71.4139 54.3652 71.4951 54.4165 71.5707C54.4664 71.6478 54.5246 71.7192 54.5884 71.7837C54.6522 71.8481 54.7229 71.9069 54.7992 71.9573C54.8741 72.0079 54.9545 72.0513 55.0377 72.0864C55.1223 72.1214 55.2097 72.1494 55.2984 72.1662C55.3872 72.1844 55.4787 72.1942 55.5688 72.1942C55.659 72.1942 55.7505 72.1844 55.8393 72.1662C55.928 72.1494 56.0154 72.1214 56.0986 72.0864C56.1832 72.0513 56.2636 72.0078 56.3385 71.9573C56.4147 71.9069 56.4855 71.8481 56.5493 71.7837C56.613 71.7192 56.6713 71.6478 56.7212 71.5707C56.7711 71.4951 56.8141 71.4139 56.8488 71.3284C56.8835 71.2444 56.9098 71.1561 56.9278 71.0665C56.9459 70.9768 56.9556 70.8844 56.9556 70.7933C56.9556 70.7023 56.9459 70.6098 56.9278 70.5202Z" fill="#4172E3"></path>
                            <path d="M96.7881 70.9516C96.7827 70.9376 96.7771 70.9237 96.7713 70.91C95.4949 67.8933 92.5016 66.7783 88.9591 68.0005L79.2981 70.6991C78.7395 68.9905 77.3463 67.5366 75.3763 66.7981C75.3641 66.7936 75.3519 66.7891 75.3396 66.7849L64.7199 63.1442C63.836 61.9902 61.0673 59.0372 55.8833 59.0372C52.2605 59.0372 49.0557 61.5476 47.2222 64.2838H34.3867C33.6208 64.2838 33 64.9109 33 65.6845V83.3442C33 84.1178 33.6208 84.7449 34.3867 84.7449H42.6317C43.3976 84.7449 44.0184 84.1178 44.0184 83.3442V82.1348H47.885C48.6509 82.1348 49.2717 81.5077 49.2717 80.7341V80.331C51.5257 80.5296 52.2671 80.9614 54.3372 82.1672C55.9291 83.0944 58.3352 84.4958 62.6681 86.4637C62.6882 86.4728 62.7086 86.4815 62.729 86.4896C63.5606 86.82 65.1863 87.3391 67.1905 87.3391C68.5855 87.3391 70.1643 87.0874 71.7848 86.3455L93.1391 78.6225C93.177 78.6088 93.2145 78.5934 93.2511 78.5763C95.2919 77.6279 98.3331 74.9549 96.7881 70.9516ZM41.245 81.9433H35.7734V67.0851H41.245V81.9433ZM46.4983 79.3333H44.0184V67.0851H46.4983V79.3333ZM92.143 76.007L70.7983 83.7264C70.7796 83.7331 70.7542 83.7432 70.7358 83.7508C70.7171 83.7585 70.6983 83.7666 70.6799 83.7752C67.7072 85.1551 64.8815 84.329 63.774 83.8941C59.5887 81.9918 57.3548 80.6907 55.7226 79.74C53.4534 78.4183 52.36 77.7813 49.2717 77.5237V66.2422C50.5862 64.066 53.1353 61.8385 55.8835 61.8385C60.5964 61.8385 62.5934 64.9347 62.6719 65.0597C62.8412 65.3379 63.1015 65.5476 63.4075 65.6525L74.4285 69.4307C76.1886 70.098 77.1189 71.6206 76.6913 73.1389C76.494 73.8401 76.038 74.4217 75.4076 74.7765C74.7826 75.1282 74.0602 75.2152 73.3715 75.0227L60.9475 71.0459C60.217 70.8121 59.4379 71.2205 59.2066 71.958C58.9752 72.6955 59.3795 73.4827 60.1096 73.7164L72.5553 77.7002C72.5685 77.7044 72.5816 77.7084 72.595 77.7122C73.0918 77.855 73.5977 77.9256 74.1005 77.9256C75.021 77.9256 75.9314 77.6887 76.7576 77.2237C78.0352 76.5047 78.959 75.3261 79.359 73.9051C79.3909 73.7917 79.4191 73.6782 79.4437 73.5648L89.8556 70.6513C91.3593 70.1325 93.3333 69.9455 94.2122 71.9901C95.1219 74.3905 92.7576 75.7109 92.143 76.007Z" fill="#4172E3"></path>
                            <path d="M82.7915 34.0515C82.7735 33.9618 82.7471 33.8736 82.7111 33.7881C82.6764 33.7041 82.6348 33.6228 82.5835 33.5472C82.5336 33.4701 82.4754 33.3987 82.4116 33.3343C82.3478 33.2698 82.277 33.211 82.2008 33.1606C82.1259 33.1102 82.0455 33.0667 81.9623 33.0317C81.8777 32.9967 81.7903 32.9687 81.7029 32.9519C81.5241 32.9155 81.3396 32.9155 81.1607 32.9519C81.072 32.9687 80.9846 32.9967 80.9014 33.0317C80.8168 33.0667 80.7364 33.1102 80.6615 33.1606C80.5853 33.211 80.5145 33.2698 80.4507 33.3343C80.387 33.3987 80.3287 33.4701 80.2788 33.5472C80.2289 33.6228 80.1859 33.7041 80.1512 33.7881C80.1165 33.8736 80.0888 33.9618 80.0722 34.0515C80.0541 34.1411 80.0444 34.2336 80.0444 34.3246C80.0444 34.4156 80.0541 34.5081 80.0722 34.5977C80.0888 34.6874 80.1165 34.7756 80.1512 34.8597C80.1859 34.9451 80.2289 35.0264 80.2788 35.102C80.3287 35.1791 80.387 35.2505 80.4507 35.3149C80.5145 35.3794 80.5853 35.4382 80.6615 35.4886C80.7364 35.539 80.8168 35.5825 80.9014 35.6175C80.9846 35.6525 81.072 35.6791 81.1607 35.6973C81.2495 35.7155 81.341 35.7253 81.4312 35.7253C81.5213 35.7253 81.6128 35.7155 81.7029 35.6973C81.7903 35.6791 81.8777 35.6525 81.9623 35.6175C82.0455 35.5825 82.1259 35.539 82.2008 35.4886C82.277 35.4382 82.3478 35.3794 82.4116 35.3149C82.4754 35.2505 82.5336 35.1791 82.5835 35.102C82.6348 35.0264 82.6764 34.9451 82.7111 34.8597C82.7471 34.7756 82.7735 34.6874 82.7915 34.5977C82.8096 34.5081 82.8179 34.4156 82.8179 34.3246C82.8179 34.2336 82.8096 34.1411 82.7915 34.0515Z" fill="#4172E3"></path>
                            <path d="M141.496 26.4272H133.251C132.485 26.4272 131.864 27.0543 131.864 27.8279V29.0373H127.998C127.232 29.0373 126.611 29.6644 126.611 30.438V30.8411C124.357 30.6424 123.616 30.2107 121.546 29.005C119.954 28.0777 117.548 26.6763 113.215 24.7084C113.194 24.6992 113.174 24.6906 113.154 24.6825C111.743 24.1219 108.047 23.019 104.098 24.8264L98.5183 26.8445L93.8147 22.0936C93.2731 21.5466 92.3951 21.5466 91.8536 22.0936L76.4113 37.6914C75.9118 38.1961 75.816 39.0711 76.4113 39.6725L102.799 66.3261C103.221 66.7528 104.21 66.8818 104.76 66.3261L118.858 52.0859C119.225 52.1179 119.605 52.1351 119.999 52.1351C123.622 52.1351 126.827 49.6248 128.66 46.8886H141.496C142.262 46.8886 142.883 46.2615 142.883 45.4879V27.8279C142.883 27.0543 142.262 26.4272 141.496 26.4272ZM92.834 25.0649L95.9946 28.2574C95.0551 28.8443 93.9689 29.1583 92.834 29.1583C91.6989 29.1583 90.6129 28.8444 89.6734 28.2574L92.834 25.0649ZM82.5137 41.8745L79.3531 38.6819L82.5137 35.4894C83.0948 36.4384 83.4057 37.5355 83.4057 38.6819C83.4057 39.8282 83.0949 40.9254 82.5137 41.8745ZM103.779 63.3546L100.619 60.1627C102.549 58.9601 105.01 58.9601 106.939 60.1627L103.779 63.3546ZM108.937 58.1448C105.873 55.8995 101.686 55.8995 98.6216 58.1448L84.5116 43.8924C85.5945 42.388 86.1791 40.581 86.1791 38.6819C86.1791 36.7827 85.5946 34.9757 84.5116 33.4714L87.6757 30.2755C89.165 31.3693 90.9539 31.9599 92.8341 31.9599C94.7144 31.9599 96.5032 31.3693 97.9926 30.2755L100.992 33.3051C100.345 33.4016 99.7136 33.6171 99.1251 33.9483C98.1311 34.5078 97.3512 35.3455 96.8656 36.3591C95.3014 36.6517 93.8532 37.4166 92.7172 38.5639C89.6352 41.6772 89.6352 46.7425 92.7174 49.8557C94.2583 51.4122 96.2825 52.1906 98.3068 52.1906C100.331 52.1906 102.355 51.4123 103.896 49.8557C104.899 48.843 105.601 47.5984 105.953 46.2419L110.635 47.847C110.108 50.3134 110.648 52.908 112.104 54.9461L108.937 58.1448ZM100.506 44.3741C100.519 44.3786 100.531 44.383 100.543 44.3872L103.316 45.3379C103.107 46.2925 102.633 47.1702 101.935 47.8749C99.9345 49.8955 96.6791 49.8958 94.6786 47.8749C92.6778 45.8541 92.6778 42.5659 94.6786 40.545C95.1612 40.0572 95.7307 39.6761 96.3513 39.4177C96.6072 41.5694 98.1411 43.4874 100.506 44.3741ZM114.102 52.9276C113.567 52.0466 113.264 51.041 113.216 50.0147C113.881 50.4998 114.692 50.975 115.662 51.3523L114.102 52.9276ZM126.611 44.9295C125.297 47.1059 122.747 49.3334 119.999 49.3334C119.485 49.3334 119.003 49.2964 118.553 49.2306C118.551 49.2303 118.549 49.23 118.547 49.2298C115.552 48.7904 113.942 47.0711 113.411 46.3904C113.382 46.3484 113.262 46.1891 113.244 46.1626C113.082 45.871 112.817 45.6365 112.48 45.5207L101.454 41.7409C99.6946 41.0739 98.7646 39.552 99.1908 38.0342C99.1911 38.0332 99.1914 38.0322 99.1917 38.0312C99.1921 38.0301 99.1924 38.0289 99.1926 38.0277C99.3908 37.3288 99.8459 36.749 100.475 36.3951C101.1 36.0434 101.822 35.9561 102.511 36.149L114.935 40.1257C115.665 40.3598 116.445 39.9511 116.676 39.2136C116.907 38.4761 116.503 37.6889 115.773 37.4551L105.892 34.2923L105.806 34.2052C105.805 34.2044 105.804 34.2034 105.803 34.2026L100.687 29.0353L105.084 27.445C105.099 27.4395 105.118 27.4327 105.132 27.4266C105.136 27.4251 105.143 27.4223 105.147 27.4208C105.166 27.413 105.184 27.4049 105.203 27.3964C108.175 26.0164 111.001 26.8424 112.108 27.2775C116.294 29.1798 118.528 30.4809 120.16 31.4315C122.429 32.7534 123.523 33.3903 126.611 33.6479V44.9295ZM131.864 44.0869H129.384V31.8387H131.864V44.0869ZM140.109 44.0869H134.638V29.2286H140.109V44.0869Z" fill="#4172E3"></path>
                        </svg>