<svg xmlns="http://www.w3.org/2000/svg" width="135" height="28" viewBox="0 0 135 28" fill="none">
                            <path d="M16.392 2.44103C16.1637 1.87254 15.6126 1.5 15 1.5C14.3874 1.5 13.8363 1.87254 13.608 2.44103L10.8555 9.29553L3.48585 9.79523C2.87463 9.83668 2.35005 10.2456 2.16074 10.8283C1.97143 11.4109 2.15545 12.0501 2.62557 12.4429L8.294 17.1789L6.4919 24.3422C6.34244 24.9364 6.56928 25.5616 7.0649 25.9217C7.56052 26.2818 8.2253 26.3043 8.74414 25.9786L15 22.0511L21.2559 25.9786C21.7747 26.3043 22.4395 26.2818 22.9351 25.9217C23.4307 25.5616 23.6576 24.9364 23.5081 24.3422L21.706 17.1789L27.3744 12.4429C27.8446 12.0501 28.0286 11.4109 27.8393 10.8283C27.65 10.2456 27.1254 9.83668 26.5142 9.79523L19.1445 9.29553L16.392 2.44103Z" stroke="#FAB61E" strokeWidth="3" strokeLinejoin="round"></path>
                            <path d="M16.392 2.44103C16.1637 1.87254 15.6126 1.5 15 1.5C14.3874 1.5 13.8363 1.87254 13.608 2.44103L10.8555 9.29553L3.48585 9.79523C2.87463 9.83668 2.35005 10.2456 2.16074 10.8283C1.97143 11.4109 2.15545 12.0501 2.62557 12.4429L8.294 17.1789L6.4919 24.3422C6.34244 24.9364 6.56928 25.5616 7.0649 25.9217C7.56052 26.2818 8.2253 26.3043 8.74414 25.9786L15 22.0511L21.2559 25.9786C21.7747 26.3043 22.4395 26.2818 22.9351 25.9217C23.4307 25.5616 23.6576 24.9364 23.5081 24.3422L21.706 17.1789L27.3744 12.4429C27.8446 12.0501 28.0286 11.4109 27.8393 10.8283C27.65 10.2456 27.1254 9.83668 26.5142 9.79523L19.1445 9.29553L16.392 2.44103Z" stroke="url(#paint0_linear)" strokeWidth="3" strokeLinejoin="round"></path>
                            <path d="M51.392 2.44103C51.1637 1.87254 50.6126 1.5 50 1.5C49.3874 1.5 48.8363 1.87254 48.608 2.44103L45.8555 9.29553L38.4858 9.79523C37.8746 9.83668 37.35 10.2456 37.1607 10.8283C36.9714 11.4109 37.1554 12.0501 37.6256 12.4429L43.294 17.1789L41.4919 24.3422C41.3424 24.9364 41.5693 25.5616 42.0649 25.9217C42.5605 26.2818 43.2253 26.3043 43.7441 25.9786L50 22.0511L56.2559 25.9786C56.7747 26.3043 57.4395 26.2818 57.9351 25.9217C58.4307 25.5616 58.6576 24.9364 58.5081 24.3422L56.706 17.1789L62.3744 12.4429C62.8446 12.0501 63.0286 11.4109 62.8393 10.8283C62.65 10.2456 62.1254 9.83668 61.5142 9.79523L54.1445 9.29553L51.392 2.44103Z" stroke="#FAB61E" strokeWidth="3" strokeLinejoin="round"></path>
                            <path d="M51.392 2.44103C51.1637 1.87254 50.6126 1.5 50 1.5C49.3874 1.5 48.8363 1.87254 48.608 2.44103L45.8555 9.29553L38.4858 9.79523C37.8746 9.83668 37.35 10.2456 37.1607 10.8283C36.9714 11.4109 37.1554 12.0501 37.6256 12.4429L43.294 17.1789L41.4919 24.3422C41.3424 24.9364 41.5693 25.5616 42.0649 25.9217C42.5605 26.2818 43.2253 26.3043 43.7441 25.9786L50 22.0511L56.2559 25.9786C56.7747 26.3043 57.4395 26.2818 57.9351 25.9217C58.4307 25.5616 58.6576 24.9364 58.5081 24.3422L56.706 17.1789L62.3744 12.4429C62.8446 12.0501 63.0286 11.4109 62.8393 10.8283C62.65 10.2456 62.1254 9.83668 61.5142 9.79523L54.1445 9.29553L51.392 2.44103Z" stroke="url(#paint1_linear)" strokeWidth="3" strokeLinejoin="round"></path>
                            <path d="M86.392 2.44103C86.1637 1.87254 85.6126 1.5 85 1.5C84.3874 1.5 83.8363 1.87254 83.608 2.44103L80.8555 9.29553L73.4858 9.79523C72.8746 9.83668 72.35 10.2456 72.1607 10.8283C71.9714 11.4109 72.1554 12.0501 72.6256 12.4429L78.294 17.1789L76.4919 24.3422C76.3424 24.9364 76.5693 25.5616 77.0649 25.9217C77.5605 26.2818 78.2253 26.3043 78.7441 25.9786L85 22.0511L91.2559 25.9786C91.7747 26.3043 92.4395 26.2818 92.9351 25.9217C93.4307 25.5616 93.6576 24.9364 93.5081 24.3422L91.706 17.1789L97.3744 12.4429C97.8446 12.0501 98.0286 11.4109 97.8393 10.8283C97.65 10.2456 97.1254 9.83668 96.5142 9.79523L89.1445 9.29553L86.392 2.44103Z" stroke="#FAB61E" strokeWidth="3" strokeLinejoin="round"></path>
                            <path d="M86.392 2.44103C86.1637 1.87254 85.6126 1.5 85 1.5C84.3874 1.5 83.8363 1.87254 83.608 2.44103L80.8555 9.29553L73.4858 9.79523C72.8746 9.83668 72.35 10.2456 72.1607 10.8283C71.9714 11.4109 72.1554 12.0501 72.6256 12.4429L78.294 17.1789L76.4919 24.3422C76.3424 24.9364 76.5693 25.5616 77.0649 25.9217C77.5605 26.2818 78.2253 26.3043 78.7441 25.9786L85 22.0511L91.2559 25.9786C91.7747 26.3043 92.4395 26.2818 92.9351 25.9217C93.4307 25.5616 93.6576 24.9364 93.5081 24.3422L91.706 17.1789L97.3744 12.4429C97.8446 12.0501 98.0286 11.4109 97.8393 10.8283C97.65 10.2456 97.1254 9.83668 96.5142 9.79523L89.1445 9.29553L86.392 2.44103Z" stroke="url(#paint2_linear)" strokeWidth="3" strokeLinejoin="round"></path>
                            <path d="M121.392 2.44103C121.164 1.87254 120.613 1.5 120 1.5C119.387 1.5 118.836 1.87254 118.608 2.44103L115.855 9.29553L108.486 9.79523C107.875 9.83668 107.35 10.2456 107.161 10.8283C106.971 11.4109 107.155 12.0501 107.626 12.4429L113.294 17.1789L111.492 24.3422C111.342 24.9364 111.569 25.5616 112.065 25.9217C112.561 26.2818 113.225 26.3043 113.744 25.9786L120 22.0511L126.256 25.9786C126.775 26.3043 127.439 26.2818 127.935 25.9217C128.431 25.5616 128.658 24.9364 128.508 24.3422L126.706 17.1789L132.374 12.4429C132.845 12.0501 133.029 11.4109 132.839 10.8283C132.65 10.2456 132.125 9.83668 131.514 9.79523L124.145 9.29553L121.392 2.44103Z" stroke="#FAB61E" strokeWidth="3" strokeLinejoin="round"></path>
                            <path d="M121.392 2.44103C121.164 1.87254 120.613 1.5 120 1.5C119.387 1.5 118.836 1.87254 118.608 2.44103L115.855 9.29553L108.486 9.79523C107.875 9.83668 107.35 10.2456 107.161 10.8283C106.971 11.4109 107.155 12.0501 107.626 12.4429L113.294 17.1789L111.492 24.3422C111.342 24.9364 111.569 25.5616 112.065 25.9217C112.561 26.2818 113.225 26.3043 113.744 25.9786L120 22.0511L126.256 25.9786C126.775 26.3043 127.439 26.2818 127.935 25.9217C128.431 25.5616 128.658 24.9364 128.508 24.3422L126.706 17.1789L132.374 12.4429C132.845 12.0501 133.029 11.4109 132.839 10.8283C132.65 10.2456 132.125 9.83668 131.514 9.79523L124.145 9.29553L121.392 2.44103Z" stroke="url(#paint3_linear)" strokeWidth="3" strokeLinejoin="round"></path>
                            <defs>
                                <linearGradient id="paint0_linear" x1="21.48" y1="10.08" x2="6.24" y2="25.32" gradientUnits="userSpaceOnUse">
                                    <stop stopColor="#FB921D"></stop>
                                    <stop offset="1" stopColor="#FBB831"></stop>
                                </linearGradient>
                                <linearGradient id="paint1_linear" x1="56.48" y1="10.08" x2="41.24" y2="25.32" gradientUnits="userSpaceOnUse">
                                    <stop stopColor="#FB921D"></stop>
                                    <stop offset="1" stopColor="#FBB831"></stop>
                                </linearGradient>
                                <linearGradient id="paint2_linear" x1="91.48" y1="10.08" x2="76.24" y2="25.32" gradientUnits="userSpaceOnUse">
                                    <stop stopColor="#FB921D"></stop>
                                    <stop offset="1" stopColor="#FBB831"></stop>
                                </linearGradient>
                                <linearGradient id="paint3_linear" x1="126.48" y1="10.08" x2="111.24" y2="25.32" gradientUnits="userSpaceOnUse">
                                    <stop stopColor="#FB921D"></stop>
                                    <stop offset="1" stopColor="#FBB831"></stop>
                                </linearGradient>
                            </defs>
                        </svg>