<svg xmlns="http://www.w3.org/2000/svg" width="75" height="61" viewBox="0 0 75 61" fill="none">
                            <path d="M58.0729 12.9778H15.9317C15.3324 12.9778 14.8467 13.4683 14.8467 14.0737C14.8467 14.679 15.3324 15.1696 15.9317 15.1696H58.0729C58.6721 15.1696 59.1578 14.679 59.1578 14.0737C59.1578 13.4683 58.6721 12.9778 58.0729 12.9778Z" fill="#FAB61E"></path>
                            <path d="M58.0729 12.9778H15.9317C15.3324 12.9778 14.8467 13.4683 14.8467 14.0737C14.8467 14.679 15.3324 15.1696 15.9317 15.1696H58.0729C58.6721 15.1696 59.1578 14.679 59.1578 14.0737C59.1578 13.4683 58.6721 12.9778 58.0729 12.9778Z" fill="url(#paint0_linear)"></path>
                            <path d="M58.0729 24.9099H15.9317C15.3324 24.9099 14.8467 25.4005 14.8467 26.0059C14.8467 26.6111 15.3324 27.1018 15.9317 27.1018H58.0729C58.6721 27.1018 59.1578 26.6112 59.1578 26.0059C59.1578 25.4005 58.6721 24.9099 58.0729 24.9099Z" fill="#FAB61E"></path>
                            <path d="M58.0729 24.9099H15.9317C15.3324 24.9099 14.8467 25.4005 14.8467 26.0059C14.8467 26.6111 15.3324 27.1018 15.9317 27.1018H58.0729C58.6721 27.1018 59.1578 26.6112 59.1578 26.0059C59.1578 25.4005 58.6721 24.9099 58.0729 24.9099Z" fill="url(#paint1_linear)"></path>
                            <path d="M44.2571 32.6536H29.7473C29.1481 32.6536 28.6624 33.1442 28.6624 33.7495C28.6624 34.3547 29.1481 34.8455 29.7473 34.8455H44.2571C44.8564 34.8455 45.342 34.3549 45.342 33.7495C45.342 33.1442 44.8564 32.6536 44.2571 32.6536Z" fill="#FAB61E"></path>
                            <path d="M44.2571 32.6536H29.7473C29.1481 32.6536 28.6624 33.1442 28.6624 33.7495C28.6624 34.3547 29.1481 34.8455 29.7473 34.8455H44.2571C44.8564 34.8455 45.342 34.3549 45.342 33.7495C45.342 33.1442 44.8564 32.6536 44.2571 32.6536Z" fill="url(#paint2_linear)"></path>
                            <path d="M58.0729 18.9194H26.6392C26.0399 18.9194 25.5543 19.41 25.5543 20.0153C25.5543 20.6205 26.0399 21.1112 26.6392 21.1112H58.0729C58.6721 21.1112 59.1578 20.6206 59.1578 20.0153C59.1578 19.41 58.6721 18.9194 58.0729 18.9194Z" fill="#FAB61E"></path>
                            <path d="M58.0729 18.9194H26.6392C26.0399 18.9194 25.5543 19.41 25.5543 20.0153C25.5543 20.6205 26.0399 21.1112 26.6392 21.1112H58.0729C58.6721 21.1112 59.1578 20.6206 59.1578 20.0153C59.1578 19.41 58.6721 18.9194 58.0729 18.9194Z" fill="url(#paint3_linear)"></path>
                            <path d="M21.5915 18.9194H15.9317C15.3324 18.9194 14.8467 19.41 14.8467 20.0153C14.8467 20.6205 15.3324 21.1111 15.9317 21.1111H21.5915C22.1908 21.1111 22.6765 20.6205 22.6765 20.0153C22.6765 19.4101 22.1908 18.9194 21.5915 18.9194Z" fill="#FAB61E"></path>
                            <path d="M21.5915 18.9194H15.9317C15.3324 18.9194 14.8467 19.41 14.8467 20.0153C14.8467 20.6205 15.3324 21.1111 15.9317 21.1111H21.5915C22.1908 21.1111 22.6765 20.6205 22.6765 20.0153C22.6765 19.4101 22.1908 18.9194 21.5915 18.9194Z" fill="url(#paint4_linear)"></path>
                            <path d="M68.4037 11.1256C68.1513 10.8752 67.8173 10.7374 67.461 10.7374C67.4607 10.7374 67.4606 10.7374 67.4603 10.7374C65.2614 10.7374 63.4617 9.00119 63.3627 6.78405C63.3302 6.06311 62.7437 5.49854 62.0275 5.49854H11.7189C11.0025 5.49854 10.4159 6.06326 10.3835 6.78478C10.2891 8.90337 8.57211 10.6378 6.47455 10.7332C5.76052 10.7656 5.20129 11.3582 5.20129 12.082V40.4088C5.20129 41.1327 5.76052 41.7251 6.47455 41.7576C8.57211 41.853 10.2891 43.5874 10.3835 45.7067C10.416 46.4276 11.0027 46.9922 11.7189 46.9922H43.7456C44.3449 46.9922 44.8305 46.5016 44.8305 45.8963C44.8305 45.2912 44.3449 44.8005 43.7456 44.8005H12.465C12.0165 42.1609 9.98412 40.1081 7.37098 39.6549V12.8355C9.98412 12.3825 12.0165 10.3292 12.465 7.69012H61.2818C61.7486 10.413 63.9189 12.5148 66.6335 12.8745V31.4848C66.6335 32.09 67.1192 32.5807 67.7184 32.5807C68.3177 32.5807 68.8033 32.0901 68.8033 31.4848V12.0882C68.8033 11.7233 68.6614 11.3814 68.4037 11.1256Z" fill="#FAB61E"></path>
                            <path d="M68.4037 11.1256C68.1513 10.8752 67.8173 10.7374 67.461 10.7374C67.4607 10.7374 67.4606 10.7374 67.4603 10.7374C65.2614 10.7374 63.4617 9.00119 63.3627 6.78405C63.3302 6.06311 62.7437 5.49854 62.0275 5.49854H11.7189C11.0025 5.49854 10.4159 6.06326 10.3835 6.78478C10.2891 8.90337 8.57211 10.6378 6.47455 10.7332C5.76052 10.7656 5.20129 11.3582 5.20129 12.082V40.4088C5.20129 41.1327 5.76052 41.7251 6.47455 41.7576C8.57211 41.853 10.2891 43.5874 10.3835 45.7067C10.416 46.4276 11.0027 46.9922 11.7189 46.9922H43.7456C44.3449 46.9922 44.8305 46.5016 44.8305 45.8963C44.8305 45.2912 44.3449 44.8005 43.7456 44.8005H12.465C12.0165 42.1609 9.98412 40.1081 7.37098 39.6549V12.8355C9.98412 12.3825 12.0165 10.3292 12.465 7.69012H61.2818C61.7486 10.413 63.9189 12.5148 66.6335 12.8745V31.4848C66.6335 32.09 67.1192 32.5807 67.7184 32.5807C68.3177 32.5807 68.8033 32.0901 68.8033 31.4848V12.0882C68.8033 11.7233 68.6614 11.3814 68.4037 11.1256Z" fill="url(#paint5_linear)"></path>
                            <path d="M70.993 0.0283203H3.01149C1.35102 0.0283203 0 1.39297 0 3.07019V49.4203C0 51.0976 1.35102 52.4621 3.01149 52.4621H48.5486L46.9364 55.8746C46.7292 56.3127 46.7797 56.8265 47.0676 57.2151C47.3557 57.6039 47.8296 57.7971 48.3038 57.7204L51.3054 57.2331L52.9796 60.0089C53.2143 60.3985 53.6314 60.6335 54.0797 60.6335C54.1015 60.6335 54.1235 60.6329 54.1454 60.6318C54.6184 60.6075 55.0388 60.3243 55.2431 59.8924L58.1521 53.7352L61.0608 59.892C61.2646 60.3239 61.6851 60.6074 62.1582 60.6319C62.1803 60.6331 62.2025 60.6337 62.2245 60.6337C62.6727 60.6337 63.0899 60.3986 63.3246 60.0092L64.9988 57.2334L68.0003 57.7209C68.476 57.7976 68.9491 57.6039 69.2369 57.215C69.5248 56.826 69.5748 56.3124 69.3677 55.875L67.7555 52.4626H70.993C72.6535 52.4626 74.0045 51.0981 74.0045 49.4207V3.07019C74.0045 1.39297 72.6535 0.0283203 70.993 0.0283203ZM53.9859 57.4648L52.8502 55.5821C52.5767 55.1287 52.0648 54.8901 51.5453 54.9743L49.618 55.2874L51.6482 50.9903C52.4484 51.8151 53.5884 52.2607 54.7717 52.1481C55.1763 52.109 55.5819 52.2191 55.9133 52.4569C56.0226 52.5354 56.136 52.6051 56.2509 52.6708L53.9859 57.4648ZM58.4108 50.9667C58.4075 50.9671 58.4042 50.9674 58.4007 50.968C58.2362 50.9925 58.069 50.9925 57.9045 50.9681C57.9003 50.9676 57.8961 50.9671 57.8921 50.9665C57.6372 50.9267 57.3895 50.8281 57.1701 50.6706C56.5139 50.1993 55.7303 49.9488 54.931 49.9488C54.8099 49.9488 54.6885 49.9546 54.5671 49.9662C53.8488 50.0346 53.1665 49.6362 52.8667 48.9745C52.7336 48.6808 52.5637 48.4089 52.3666 48.1603C52.3579 48.1479 52.3484 48.1362 52.3393 48.1242C52.3283 48.1108 52.318 48.0969 52.307 48.0837C52.2945 48.0688 52.2813 48.0546 52.2679 48.0404C51.9091 47.6235 51.4658 47.283 50.9609 47.0497C50.3057 46.7469 49.9113 46.0566 49.9792 45.332C50.0665 44.3997 49.8189 43.4659 49.2818 42.7027C48.8642 42.1096 48.8642 41.3125 49.2817 40.7194C49.8189 39.9562 50.0665 39.0224 49.9792 38.0901C49.9113 37.3655 50.3059 36.6752 50.9609 36.3724C51.804 35.9827 52.4808 35.2992 52.8665 34.4476C53.1665 33.7858 53.8513 33.3872 54.5671 33.4559C55.4911 33.544 56.4147 33.2939 57.1702 32.7514C57.7576 32.3297 58.5467 32.3297 59.1338 32.7514C59.8895 33.2939 60.8132 33.5434 61.737 33.4559C62.4549 33.387 63.1379 33.7859 63.4376 34.4476C63.8234 35.2992 64.5001 35.9827 65.3431 36.3723C65.9983 36.6752 66.3929 37.3655 66.325 38.0899C66.2377 39.0224 66.4853 39.9562 67.0224 40.7192C67.4399 41.3124 67.4399 42.1094 67.0224 42.7026C66.4853 43.4659 66.2377 44.3997 66.325 45.3319C66.3929 46.0565 65.9983 46.7467 65.343 47.0497C64.8392 47.2826 64.3969 47.6222 64.0386 48.0378C64.0239 48.0533 64.0094 48.0689 63.9958 48.0851C63.9864 48.0965 63.9776 48.1083 63.9682 48.1199C63.9574 48.1339 63.9464 48.1476 63.9363 48.1621C63.7397 48.4103 63.5703 48.6815 63.4376 48.9745C63.1377 49.6362 62.4543 50.0349 61.737 49.9662C60.8148 49.8784 59.8897 50.1281 59.1338 50.6706C58.9141 50.8283 58.6661 50.927 58.4108 50.9667ZM64.7587 54.9742C64.2391 54.8902 63.7274 55.1287 63.4538 55.5823L62.3183 57.4649L60.0532 52.6708C60.1681 52.6051 60.2814 52.5354 60.3909 52.4569C60.7224 52.2189 61.1283 52.1085 61.5324 52.148C62.7162 52.2607 63.8559 51.8151 64.6561 50.9903L66.6862 55.2872L64.7587 54.9742ZM71.8348 49.4204C71.8348 49.8892 71.4573 50.2707 70.993 50.2707H66.72L66.1606 49.0867C66.1888 49.0716 66.2168 49.0559 66.246 49.0424C67.74 48.3517 68.6398 46.7776 68.485 45.1254C68.4467 44.7166 68.5552 44.3071 68.7908 43.9723C69.7428 42.6197 69.7428 40.802 68.7907 39.4493C68.5552 39.1147 68.4467 38.7053 68.485 38.2964C68.6398 36.6443 67.74 35.0701 66.2459 34.3794C65.8763 34.2084 65.5796 33.9087 65.4103 33.5354C64.7266 32.0262 63.1675 31.1176 61.5323 31.2739C61.1273 31.3128 60.7221 31.2029 60.3909 30.9649C59.0517 30.0034 57.252 30.0032 55.913 30.9649C55.5816 31.2029 55.1753 31.3128 54.7716 31.2737C53.1339 31.1181 51.5772 32.0262 50.8937 33.5352C50.7245 33.9087 50.4277 34.2083 50.058 34.3792C48.564 35.07 47.6643 36.644 47.8191 38.2962C47.8574 38.7052 47.7488 39.1145 47.5132 39.4493C46.5613 40.802 46.5613 42.6197 47.5132 43.9722C47.7488 44.3068 47.8574 44.7164 47.8191 45.1253C47.6643 46.7776 48.564 48.3517 50.058 49.0423C50.0872 49.0557 50.1151 49.0715 50.1433 49.0865L49.5839 50.2707H3.01149C2.54737 50.2707 2.16969 49.8894 2.16969 49.4204V3.07019C2.16969 2.60139 2.54723 2.2199 3.01149 2.2199H70.993C71.4571 2.2199 71.8348 2.60139 71.8348 3.07019V49.4204Z" fill="#FAB61E"></path>
                            <path d="M70.993 0.0283203H3.01149C1.35102 0.0283203 0 1.39297 0 3.07019V49.4203C0 51.0976 1.35102 52.4621 3.01149 52.4621H48.5486L46.9364 55.8746C46.7292 56.3127 46.7797 56.8265 47.0676 57.2151C47.3557 57.6039 47.8296 57.7971 48.3038 57.7204L51.3054 57.2331L52.9796 60.0089C53.2143 60.3985 53.6314 60.6335 54.0797 60.6335C54.1015 60.6335 54.1235 60.6329 54.1454 60.6318C54.6184 60.6075 55.0388 60.3243 55.2431 59.8924L58.1521 53.7352L61.0608 59.892C61.2646 60.3239 61.6851 60.6074 62.1582 60.6319C62.1803 60.6331 62.2025 60.6337 62.2245 60.6337C62.6727 60.6337 63.0899 60.3986 63.3246 60.0092L64.9988 57.2334L68.0003 57.7209C68.476 57.7976 68.9491 57.6039 69.2369 57.215C69.5248 56.826 69.5748 56.3124 69.3677 55.875L67.7555 52.4626H70.993C72.6535 52.4626 74.0045 51.0981 74.0045 49.4207V3.07019C74.0045 1.39297 72.6535 0.0283203 70.993 0.0283203ZM53.9859 57.4648L52.8502 55.5821C52.5767 55.1287 52.0648 54.8901 51.5453 54.9743L49.618 55.2874L51.6482 50.9903C52.4484 51.8151 53.5884 52.2607 54.7717 52.1481C55.1763 52.109 55.5819 52.2191 55.9133 52.4569C56.0226 52.5354 56.136 52.6051 56.2509 52.6708L53.9859 57.4648ZM58.4108 50.9667C58.4075 50.9671 58.4042 50.9674 58.4007 50.968C58.2362 50.9925 58.069 50.9925 57.9045 50.9681C57.9003 50.9676 57.8961 50.9671 57.8921 50.9665C57.6372 50.9267 57.3895 50.8281 57.1701 50.6706C56.5139 50.1993 55.7303 49.9488 54.931 49.9488C54.8099 49.9488 54.6885 49.9546 54.5671 49.9662C53.8488 50.0346 53.1665 49.6362 52.8667 48.9745C52.7336 48.6808 52.5637 48.4089 52.3666 48.1603C52.3579 48.1479 52.3484 48.1362 52.3393 48.1242C52.3283 48.1108 52.318 48.0969 52.307 48.0837C52.2945 48.0688 52.2813 48.0546 52.2679 48.0404C51.9091 47.6235 51.4658 47.283 50.9609 47.0497C50.3057 46.7469 49.9113 46.0566 49.9792 45.332C50.0665 44.3997 49.8189 43.4659 49.2818 42.7027C48.8642 42.1096 48.8642 41.3125 49.2817 40.7194C49.8189 39.9562 50.0665 39.0224 49.9792 38.0901C49.9113 37.3655 50.3059 36.6752 50.9609 36.3724C51.804 35.9827 52.4808 35.2992 52.8665 34.4476C53.1665 33.7858 53.8513 33.3872 54.5671 33.4559C55.4911 33.544 56.4147 33.2939 57.1702 32.7514C57.7576 32.3297 58.5467 32.3297 59.1338 32.7514C59.8895 33.2939 60.8132 33.5434 61.737 33.4559C62.4549 33.387 63.1379 33.7859 63.4376 34.4476C63.8234 35.2992 64.5001 35.9827 65.3431 36.3723C65.9983 36.6752 66.3929 37.3655 66.325 38.0899C66.2377 39.0224 66.4853 39.9562 67.0224 40.7192C67.4399 41.3124 67.4399 42.1094 67.0224 42.7026C66.4853 43.4659 66.2377 44.3997 66.325 45.3319C66.3929 46.0565 65.9983 46.7467 65.343 47.0497C64.8392 47.2826 64.3969 47.6222 64.0386 48.0378C64.0239 48.0533 64.0094 48.0689 63.9958 48.0851C63.9864 48.0965 63.9776 48.1083 63.9682 48.1199C63.9574 48.1339 63.9464 48.1476 63.9363 48.1621C63.7397 48.4103 63.5703 48.6815 63.4376 48.9745C63.1377 49.6362 62.4543 50.0349 61.737 49.9662C60.8148 49.8784 59.8897 50.1281 59.1338 50.6706C58.9141 50.8283 58.6661 50.927 58.4108 50.9667ZM64.7587 54.9742C64.2391 54.8902 63.7274 55.1287 63.4538 55.5823L62.3183 57.4649L60.0532 52.6708C60.1681 52.6051 60.2814 52.5354 60.3909 52.4569C60.7224 52.2189 61.1283 52.1085 61.5324 52.148C62.7162 52.2607 63.8559 51.8151 64.6561 50.9903L66.6862 55.2872L64.7587 54.9742ZM71.8348 49.4204C71.8348 49.8892 71.4573 50.2707 70.993 50.2707H66.72L66.1606 49.0867C66.1888 49.0716 66.2168 49.0559 66.246 49.0424C67.74 48.3517 68.6398 46.7776 68.485 45.1254C68.4467 44.7166 68.5552 44.3071 68.7908 43.9723C69.7428 42.6197 69.7428 40.802 68.7907 39.4493C68.5552 39.1147 68.4467 38.7053 68.485 38.2964C68.6398 36.6443 67.74 35.0701 66.2459 34.3794C65.8763 34.2084 65.5796 33.9087 65.4103 33.5354C64.7266 32.0262 63.1675 31.1176 61.5323 31.2739C61.1273 31.3128 60.7221 31.2029 60.3909 30.9649C59.0517 30.0034 57.252 30.0032 55.913 30.9649C55.5816 31.2029 55.1753 31.3128 54.7716 31.2737C53.1339 31.1181 51.5772 32.0262 50.8937 33.5352C50.7245 33.9087 50.4277 34.2083 50.058 34.3792C48.564 35.07 47.6643 36.644 47.8191 38.2962C47.8574 38.7052 47.7488 39.1145 47.5132 39.4493C46.5613 40.802 46.5613 42.6197 47.5132 43.9722C47.7488 44.3068 47.8574 44.7164 47.8191 45.1253C47.6643 46.7776 48.564 48.3517 50.058 49.0423C50.0872 49.0557 50.1151 49.0715 50.1433 49.0865L49.5839 50.2707H3.01149C2.54737 50.2707 2.16969 49.8894 2.16969 49.4204V3.07019C2.16969 2.60139 2.54723 2.2199 3.01149 2.2199H70.993C71.4571 2.2199 71.8348 2.60139 71.8348 3.07019V49.4204Z" fill="url(#paint6_linear)"></path>
                            <path d="M58.0729 34.9026C54.3562 34.9026 51.3324 37.9569 51.3324 41.7109C51.3324 45.4651 54.3562 48.5194 58.0729 48.5194C61.7895 48.5194 64.8132 45.465 64.8132 41.7109C64.8132 37.9567 61.7895 34.9026 58.0729 34.9026ZM58.0729 46.3277C55.5525 46.3277 53.5021 44.2566 53.5021 41.7108C53.5021 39.1652 55.5525 37.094 58.0729 37.094C60.5931 37.094 62.6435 39.1652 62.6435 41.7108C62.6435 44.2566 60.5931 46.3277 58.0729 46.3277Z" fill="#FAB61E"></path>
                            <path d="M58.0729 34.9026C54.3562 34.9026 51.3324 37.9569 51.3324 41.7109C51.3324 45.4651 54.3562 48.5194 58.0729 48.5194C61.7895 48.5194 64.8132 45.465 64.8132 41.7109C64.8132 37.9567 61.7895 34.9026 58.0729 34.9026ZM58.0729 46.3277C55.5525 46.3277 53.5021 44.2566 53.5021 41.7108C53.5021 39.1652 55.5525 37.094 58.0729 37.094C60.5931 37.094 62.6435 39.1652 62.6435 41.7108C62.6435 44.2566 60.5931 46.3277 58.0729 46.3277Z" fill="url(#paint7_linear)"></path>
                            <defs>
                                <linearGradient id="paint0_linear" x1="48.9662" y1="13.6244" x2="48.8289" y2="16.4011" gradientUnits="userSpaceOnUse">
                                    <stop stopColor="#FB921D"></stop>
                                    <stop offset="1" stopColor="#FBB831"></stop>
                                </linearGradient>
                                <linearGradient id="paint1_linear" x1="48.9662" y1="25.5565" x2="48.8289" y2="28.3334" gradientUnits="userSpaceOnUse">
                                    <stop stopColor="#FB921D"></stop>
                                    <stop offset="1" stopColor="#FBB831"></stop>
                                </linearGradient>
                                <linearGradient id="paint2_linear" x1="41.5057" y1="33.3002" x2="41.1461" y2="36.0366" gradientUnits="userSpaceOnUse">
                                    <stop stopColor="#FB921D"></stop>
                                    <stop offset="1" stopColor="#FBB831"></stop>
                                </linearGradient>
                                <linearGradient id="paint3_linear" x1="51.429" y1="19.566" x2="51.2482" y2="22.3378" gradientUnits="userSpaceOnUse">
                                    <stop stopColor="#FB921D"></stop>
                                    <stop offset="1" stopColor="#FBB831"></stop>
                                </linearGradient>
                                <linearGradient id="paint4_linear" x1="20.8756" y1="19.566" x2="20.1531" y2="22.1471" gradientUnits="userSpaceOnUse">
                                    <stop stopColor="#FB921D"></stop>
                                    <stop offset="1" stopColor="#FBB831"></stop>
                                </linearGradient>
                                <linearGradient id="paint5_linear" x1="54.1749" y1="17.7392" x2="30.0596" y2="54.7034" gradientUnits="userSpaceOnUse">
                                    <stop stopColor="#FB921D"></stop>
                                    <stop offset="1" stopColor="#FBB831"></stop>
                                </linearGradient>
                                <linearGradient id="paint6_linear" x1="56.9835" y1="17.9069" x2="19.2542" y2="63.9777" gradientUnits="userSpaceOnUse">
                                    <stop stopColor="#FB921D"></stop>
                                    <stop offset="1" stopColor="#FBB831"></stop>
                                </linearGradient>
                                <linearGradient id="paint7_linear" x1="61.7126" y1="38.9195" x2="53.0663" y2="47.4794" gradientUnits="userSpaceOnUse">
                                    <stop stopColor="#FB921D"></stop>
                                    <stop offset="1" stopColor="#FBB831"></stop>
                                </linearGradient>
                            </defs>
                        </svg>