<svg xmlns="http://www.w3.org/2000/svg" width="179" height="88" viewBox="0 0 179 88" fill="none">
                            <path opacity="0.5" d="M0.299988 61.2L24.1 37.2C26.7667 34.6 28.7 32.2667 29.9 30.2C31.1667 28.1333 31.8 26 31.8 23.8C31.8 21.3333 31.1 19.5333 29.7 18.4C28.3 17.2 26 16.6 22.8 16.6H1.69999V2.90001C6.29999 2.03335 10.4 1.36668 14 0.900009C17.6 0.433345 21.6333 0.200012 26.1 0.200012C34.5 0.200012 40.4333 1.93335 43.9 5.40001C47.3667 8.80001 49.1 13.9333 49.1 20.8C49.1 25.5333 48.1667 29.7333 46.3 33.4C44.5 37.0667 41.6333 40.8667 37.7 44.8L23.1 59.5H51.2V75H0.299988V61.2Z" fill="#fff"></path>
                            <path d="M39.2845 59.31H30.3146C29.6052 59.31 29.0303 58.7298 29.0303 58.014C29.0303 57.2982 29.6052 56.718 30.3146 56.718H39.2845C39.9939 56.718 40.5689 57.2982 40.5689 58.014C40.5689 58.7298 39.9939 59.31 39.2845 59.31ZM35.4596 64.579H40.5607C41.2701 64.579 41.8451 63.9988 41.8451 63.2829C41.8451 62.5671 41.2701 61.9869 40.5607 61.9869H35.4596C34.7503 61.9869 34.1753 62.5671 34.1753 63.2829C34.1753 63.9988 34.7504 64.579 35.4596 64.579ZM28.9384 63.2829C28.9384 62.5671 28.3634 61.9869 27.6541 61.9869H24.5909C23.8815 61.9869 23.3066 62.5671 23.3066 63.2829C23.3066 63.9988 23.8815 64.579 24.5909 64.579H27.6541C28.3634 64.579 28.9384 63.9986 28.9384 63.2829ZM45.8161 52.7454C45.8161 52.0295 45.2411 51.4493 44.5317 51.4493H23.2843C22.575 51.4493 22 52.0295 22 52.7454C22 53.4612 22.575 54.0414 23.2843 54.0414H44.5317C45.241 54.0414 45.8161 53.4611 45.8161 52.7454ZM83.9917 68.7869L83.9864 69.9794C83.9828 70.7429 83.9787 71.6116 83.9787 72.6705C83.9787 74.7665 82.3854 76.5685 80.1879 77.1428C79.6509 81.1831 76.2125 84.309 72.0639 84.309C67.5444 84.309 63.8673 80.5984 63.8673 76.0376C63.8673 71.4768 67.5444 67.7663 72.0639 67.7663C76.0378 67.7663 79.3602 70.6349 80.1049 74.4275C80.8822 74.0551 81.41 73.3931 81.41 72.6705C81.41 71.6067 81.414 70.7341 81.4177 69.9671L81.423 68.7749C81.43 67.2361 81.4396 65.1286 81.4174 64.1393C81.4104 63.825 81.4017 63.5338 81.3893 63.2622H49.6906C46.2035 63.2622 44.9207 60.1245 44.4992 59.0935C44.2286 58.4318 44.5409 57.674 45.1966 57.4011C45.8533 57.1284 46.6034 57.4433 46.8736 58.1049C47.6088 59.903 48.4514 60.6701 49.6906 60.6701H80.9337C80.3954 59.3872 79.2399 58.3543 76.7014 56.0847C76.1905 55.628 75.6295 55.1265 75.0136 54.5686C74.5701 54.1671 74.1246 53.7375 73.6938 53.3222C73.055 52.7065 72.3946 52.0697 71.6996 51.4823C71.099 50.9746 70.5303 50.4914 69.9896 50.0319C63.141 44.2129 61.0741 42.4568 55.0453 42.4568H31.3994C29.9252 42.4568 28.6795 43.4052 28.6795 44.5278V47.6219C28.6795 48.3377 28.1046 48.9179 27.3952 48.9179C26.6858 48.9179 26.1109 48.3377 26.1109 47.6219V44.528C26.1109 41.9568 28.4833 39.8649 31.3994 39.8649H55.0451C62.0112 39.8649 64.6341 42.0935 71.6438 48.0491C72.183 48.5074 72.7499 48.989 73.3488 49.4952C74.108 50.137 74.7994 50.8035 75.468 51.448C75.9037 51.8681 76.3151 52.2647 76.7288 52.6391C77.3405 53.1931 77.8974 53.691 78.4045 54.1444C82.8222 58.0941 83.8719 59.0324 83.9854 64.0806C84.0084 65.1053 83.9992 67.1467 83.9917 68.7869ZM77.6922 76.0554C77.6917 76.0381 77.6917 76.021 77.692 76.004C77.6739 72.8879 75.1562 70.3585 72.0641 70.3585C68.9609 70.3585 66.4361 72.9062 66.4361 76.0377C66.4361 79.1693 68.9607 81.7171 72.0641 81.7171C75.1615 81.7171 77.6825 79.1789 77.6922 76.0554ZM38.0494 74.7415H38.045C37.3356 74.7415 36.763 75.3217 36.763 76.0376C36.763 76.7534 37.3402 77.3336 38.0496 77.3336C38.759 77.3336 39.3339 76.7534 39.3339 76.0376C39.3339 75.3217 38.7588 74.7415 38.0494 74.7415ZM72.0662 74.7415H72.0612C71.3519 74.7415 70.7795 75.3217 70.7795 76.0376C70.7795 76.7534 71.357 77.3336 72.0664 77.3336C72.7757 77.3336 73.3507 76.7534 73.3507 76.0376C73.3507 75.3217 72.7756 74.7415 72.0662 74.7415ZM61.1694 76.0376C61.1694 76.7534 60.5944 77.3336 59.8851 77.3336H46.1434C45.5251 81.2809 42.1299 84.309 38.0471 84.309C33.9013 84.309 30.4646 81.1871 29.9245 77.1504C28.4299 76.7711 27.1881 75.8255 26.5488 74.53C26.2583 73.9413 26.111 73.3158 26.111 72.6705V68.8307C26.111 68.1148 26.686 67.5346 27.3953 67.5346C28.1047 67.5346 28.6797 68.1148 28.6797 68.8307V72.6705C28.6797 72.911 28.7363 73.1477 28.8482 73.3744C29.0721 73.828 29.4861 74.2001 30.0041 74.4409C30.7434 70.6416 34.0689 67.7663 38.0473 67.7663C42.13 67.7663 45.5252 70.7944 46.1436 74.7415H59.8852C60.5944 74.7415 61.1694 75.3219 61.1694 76.0376ZM43.6754 76.0376C43.6754 72.9061 41.1507 70.3584 38.0473 70.3584C34.9492 70.3584 32.4278 72.8974 32.4194 76.0219C32.4194 76.0278 32.4194 76.0335 32.4194 76.0393C32.4203 79.1702 34.9445 81.7171 38.0473 81.7171C41.1505 81.7171 43.6754 79.1692 43.6754 76.0376Z" fill="#4172E3"></path>
                            <path d="M162.098 2.4917C152.779 2.4917 145.197 10.1502 145.197 19.564C145.197 22.6658 146.021 25.6774 147.587 28.3199L145.329 32.9564L145.298 33.0754C145.025 34.1035 145.307 35.1665 146.052 35.9189C146.61 36.4825 147.341 36.7837 148.1 36.7837C148.354 36.7837 148.612 36.7498 148.867 36.6808L148.985 36.6489L153.63 34.341C156.197 35.8446 159.109 36.636 162.098 36.636C171.418 36.636 179 28.9775 179 19.564C179 10.1502 171.418 2.4917 162.098 2.4917V2.4917ZM162.098 34.1221C159.346 34.1221 156.671 33.3361 154.361 31.8488L153.771 31.4687L148.139 34.2671C147.979 34.2806 147.868 34.1972 147.812 34.141C147.756 34.0847 147.674 33.9728 147.687 33.81L150.441 28.1551L150.05 27.5545C148.503 25.1801 147.685 22.4171 147.685 19.5638C147.685 11.5364 154.151 5.00548 162.098 5.00548C170.045 5.00548 176.511 11.5362 176.511 19.5638C176.511 27.5913 170.046 34.1221 162.098 34.1221Z" fill="#4172E3"></path>
                            <path d="M137.831 33.6228L137.842 32.1014C138.351 31.4568 138.636 30.6567 138.636 29.8335C138.636 28.9623 138.329 28.1612 137.814 27.5272C137.816 27.499 137.818 27.471 137.818 27.4424V23.828C137.818 16.8533 132.201 11.179 125.295 11.179H119.333C118.646 11.179 118.089 11.7417 118.089 12.4359C118.089 13.1301 118.646 13.6929 119.333 13.6929H125.295C130.828 13.6929 135.329 18.2395 135.329 23.828V26.1638C135.295 26.1594 135.261 26.1524 135.226 26.1489L124.94 25.1543C121.396 24.8116 117.802 24.8116 114.258 25.1543L103.972 26.1489C103.937 26.1524 103.903 26.1594 103.869 26.1638V23.828C103.869 18.2395 108.37 13.6929 113.902 13.6929H114.355C115.043 13.6929 115.6 13.1301 115.6 12.4359C115.6 11.7417 115.043 11.179 114.355 11.179H113.902C106.997 11.179 101.38 16.8533 101.38 23.828V27.5322C100.867 28.1654 100.562 28.9646 100.562 29.8335C100.562 30.6885 100.869 31.5183 101.416 32.175C101.408 32.2308 101.403 32.2874 101.402 32.3454L101.391 33.688C98.3397 34.1814 96 36.8584 96 40.0778C96 43.4532 98.5718 46.2318 101.84 46.5232C103.421 53.0865 108.493 58.2842 114.951 59.9849C114.944 60.089 114.94 60.1933 114.94 60.298V61.1472H114.4C106.395 61.1472 99.8823 67.7257 99.8823 75.8119V83.7245C99.8823 85.8785 101.617 87.6309 103.75 87.6309H135.962C138.094 87.6309 139.829 85.8785 139.829 83.7245V75.8119C139.829 67.7257 133.316 61.1472 125.311 61.1472H124.757V60.298C124.757 60.1349 124.749 59.9732 124.733 59.8127C127.225 59.0653 129.55 57.7861 131.537 56.0303C132.055 55.5731 132.107 54.7791 131.655 54.2567C131.202 53.7339 130.416 53.6811 129.899 54.1382C127.952 55.8589 125.629 57.0523 123.144 57.6416C123.029 57.6497 122.914 57.6746 122.802 57.7167C121.738 57.9438 120.648 58.0641 119.545 58.0641C110.87 58.0641 103.813 50.9354 103.813 42.1833L103.882 33.5077C104.156 33.5409 104.436 33.5452 104.716 33.5181L114.495 32.5725C117.882 32.245 121.316 32.245 124.703 32.5725L134.481 33.5181C134.606 33.5301 134.73 33.536 134.854 33.536C135.018 33.536 135.181 33.5218 135.343 33.501L135.277 42.1733C135.277 45.1552 134.455 48.0611 132.9 50.5771C132.536 51.1658 132.714 51.9413 133.297 52.309C133.501 52.4382 133.729 52.4999 133.954 52.4999C134.369 52.4999 134.775 52.2903 135.011 51.9085C136.041 50.2432 136.792 48.4308 137.247 46.5412C137.295 46.5467 137.342 46.5502 137.391 46.5502C140.924 46.5502 143.798 43.6468 143.798 40.078C143.799 36.6587 141.16 33.8521 137.831 33.6228ZM125.311 63.6612C131.944 63.6612 137.34 69.1119 137.34 75.8119V83.7245C137.34 84.4923 136.722 85.1169 135.962 85.1169H128.878V82.018C128.878 81.3239 128.32 80.7611 127.633 80.7611C126.946 80.7611 126.389 81.3239 126.389 82.018V85.1169H112.949V82.018C112.949 81.3239 112.392 80.7611 111.705 80.7611C111.017 80.7611 110.46 81.3239 110.46 82.018V85.1169H103.75C102.989 85.1169 102.371 84.4923 102.371 83.7245V75.8119C102.371 69.1119 107.767 63.6612 114.4 63.6612H114.94V64.1206C114.94 66.8016 117.099 68.9827 119.753 68.9827H119.943C122.597 68.9827 124.757 66.8016 124.757 64.1206V63.6612H125.311ZM122.268 60.3679V64.1206C122.268 65.4154 121.225 66.4688 119.943 66.4688H119.753C118.471 66.4688 117.429 65.4154 117.429 64.1206V60.4534C118.123 60.5348 118.829 60.5782 119.545 60.5782C120.462 60.5781 121.371 60.5045 122.268 60.3679ZM98.4887 40.078C98.4887 38.2579 99.7117 36.7217 101.371 36.2615L101.324 42.1733C101.324 42.7572 101.352 43.3344 101.405 43.9046C99.7284 43.4561 98.4887 41.9108 98.4887 40.078ZM134.719 31.0155L124.94 30.0699C121.396 29.7272 117.802 29.7272 114.257 30.0699L104.479 31.0155C104.09 31.0531 103.708 30.9284 103.43 30.6736C103.186 30.4489 103.051 30.1506 103.051 29.8335C103.051 29.2234 103.549 28.7153 104.209 28.6512L114.495 27.6567C116.188 27.493 117.893 27.4112 119.599 27.4112C121.304 27.4112 123.009 27.493 124.703 27.6567L134.988 28.6512C135.648 28.7151 136.146 29.2234 136.146 29.8335C136.146 30.1506 136.012 30.4489 135.767 30.6736C135.49 30.9285 135.107 31.0532 134.719 31.0155ZM137.674 44.0247C137.734 43.4147 137.766 42.8001 137.766 42.1828L137.812 36.143C139.776 36.3557 141.31 38.039 141.31 40.078C141.31 42.1646 139.703 43.8779 137.674 44.0247Z" fill="#4172E3"></path>
                            <path d="M111.523 41.9385C110.835 41.9385 110.278 42.5013 110.278 43.1955V44.4238C110.278 45.118 110.835 45.6808 111.523 45.6808C112.21 45.6808 112.767 45.118 112.767 44.4238V43.1955C112.767 42.5013 112.21 41.9385 111.523 41.9385Z" fill="#4172E3"></path>
                            <path d="M125.625 43.1955V44.4238C125.625 45.118 126.182 45.6808 126.869 45.6808C127.556 45.6808 128.113 45.118 128.113 44.4238V43.1955C128.113 42.5013 127.556 41.9385 126.869 41.9385C126.182 41.9385 125.625 42.5013 125.625 43.1955Z" fill="#4172E3"></path>
                            <path d="M120.405 48.9627C120.239 49.2652 119.924 49.4531 119.583 49.4531C119.242 49.4531 118.927 49.2658 118.761 48.9647C118.426 48.3581 117.668 48.1406 117.068 48.4786C116.468 48.8167 116.252 49.5821 116.587 50.1886C117.192 51.2856 118.34 51.967 119.583 51.967C120.829 51.967 121.978 51.2827 122.582 50.1811C122.915 49.5737 122.698 48.8088 122.097 48.4724C121.495 48.1359 120.738 48.3556 120.405 48.9627Z" fill="#4172E3"></path>
                            <path d="M113.791 36.9434C114.064 36.306 113.773 35.5661 113.142 35.2909C111.606 34.6203 109.846 34.7643 108.434 35.6758C107.855 36.0497 107.685 36.827 108.056 37.412C108.293 37.7872 108.695 37.9921 109.105 37.9921C109.335 37.9921 109.567 37.928 109.774 37.794C110.489 37.3329 111.378 37.2596 112.155 37.5985C112.786 37.8741 113.518 37.5804 113.791 36.9434Z" fill="#4172E3"></path>
                            <path d="M129.511 37.9921C129.921 37.9921 130.323 37.7871 130.561 37.412C130.931 36.8271 130.761 36.0499 130.182 35.6758C128.771 34.7642 127.011 34.6204 125.474 35.291C124.844 35.5663 124.553 36.3061 124.826 36.9434C125.098 37.5806 125.83 37.8746 126.461 37.5987C127.238 37.2598 128.128 37.3329 128.842 37.7941C129.049 37.928 129.282 37.9921 129.511 37.9921Z" fill="#4172E3"></path>
                            <path d="M123.363 73.6828V75.4049C123.363 76.8334 124.514 77.9955 125.928 77.9955H130.242C131.656 77.9955 132.806 76.8334 132.806 75.4049V73.6828C132.806 72.2544 131.656 71.0923 130.242 71.0923H125.928C124.514 71.0923 123.363 72.2544 123.363 73.6828ZM125.852 73.6828C125.852 73.6406 125.886 73.6063 125.928 73.6063H130.242C130.284 73.6063 130.318 73.6406 130.318 73.6828V75.4049C130.318 75.4472 130.284 75.4815 130.242 75.4815H125.928C125.886 75.4815 125.852 75.4472 125.852 75.4049V73.6828Z" fill="#4172E3"></path>
                            <path d="M163.483 16.0163C161.314 15.2782 158.955 16.4599 158.224 18.6508C157.494 20.8418 158.664 23.2248 160.833 23.9629C161.271 24.1118 161.716 24.1827 162.155 24.1827C163.888 24.1827 165.509 23.0768 166.092 21.3283C166.445 20.2681 166.369 19.1313 165.876 18.1273C165.383 17.1232 164.533 16.3734 163.483 16.0163ZM163.733 20.5257C163.441 21.4029 162.496 21.8762 161.627 21.5805C160.759 21.2849 160.29 20.3308 160.583 19.4534C160.816 18.7532 161.465 18.3106 162.159 18.3106C162.335 18.3106 162.513 18.339 162.689 18.3986C163.108 18.5414 163.448 18.8417 163.646 19.2443C163.844 19.6468 163.874 20.1019 163.733 20.5257Z" fill="#4172E3"></path>
                            <path d="M172.267 22.7721C172.047 22.2731 171.628 21.8846 171.117 21.706C171.117 21.706 171.117 21.706 171.117 21.706L170.83 21.6054C171.031 20.5125 171.026 19.3997 170.814 18.3076L171.089 18.2118C171.603 18.0328 172.024 17.6418 172.243 17.139C172.462 16.638 172.464 16.0632 172.249 15.5617C171.125 12.9387 169.072 10.8799 166.468 9.76489C165.972 9.55238 165.405 9.55824 164.912 9.77997C164.418 10.0027 164.033 10.4271 163.857 10.9441L163.76 11.2307C162.679 11.0271 161.578 11.0318 160.498 11.2448L160.403 10.9657C160.226 10.4463 159.839 10.0211 159.341 9.79925C158.848 9.57919 158.281 9.57601 157.786 9.79154C155.185 10.9255 153.143 12.9998 152.037 15.6323C151.826 16.1346 151.832 16.7086 152.053 17.2075C152.275 17.7083 152.698 18.0964 153.212 18.2728L153.487 18.3671C153.285 19.4587 153.29 20.5702 153.5 21.6611L153.224 21.7569C152.71 21.9352 152.29 22.3251 152.07 22.8265C151.851 23.3263 151.847 23.9005 152.06 24.4018C153.19 27.0617 155.232 29.1432 157.809 30.2628C158.058 30.3707 158.323 30.4247 158.589 30.4247C158.862 30.4247 159.136 30.3674 159.389 30.2531C159.886 30.029 160.27 29.6018 160.444 29.0807L160.555 28.748C161.633 28.9513 162.731 28.9472 163.808 28.7361L163.903 29.0152C164.079 29.5349 164.466 29.9604 164.963 30.183C165.457 30.4037 166.024 30.4073 166.518 30.1926C169.127 29.0589 171.174 26.9812 172.281 24.3418C172.491 23.8417 172.486 23.2695 172.267 22.7721ZM166.064 27.6315L165.786 26.8135C165.679 26.4981 165.452 26.2386 165.155 26.0921C164.859 25.9458 164.517 25.9245 164.205 26.0328C162.875 26.4942 161.47 26.4992 160.141 26.0479C159.49 25.8268 158.784 26.1803 158.565 26.8376L158.276 27.7076C156.697 26.8877 155.415 25.5765 154.592 23.9402L155.404 23.658C155.717 23.5497 155.973 23.3203 156.118 23.0206C156.263 22.7209 156.284 22.3754 156.177 22.0601C155.719 20.7163 155.713 19.2958 156.16 17.952C156.379 17.2952 156.03 16.5834 155.381 16.361L154.572 16.0841C155.378 14.4764 156.656 13.1777 158.243 12.3521L158.522 13.1696C158.63 13.4849 158.857 13.7441 159.154 13.8903C159.451 14.0366 159.793 14.0575 160.105 13.9486C161.433 13.4859 162.838 13.4788 164.168 13.9288C164.816 14.148 165.518 13.7984 165.74 13.1455L166.02 12.3243C167.612 13.1376 168.899 14.4274 169.717 16.0307L168.908 16.3127C168.595 16.4215 168.339 16.6511 168.194 16.9509C168.05 17.2508 168.03 17.5963 168.137 17.9114C168.596 19.2534 168.604 20.6726 168.159 22.0159C167.943 22.6695 168.288 23.3772 168.933 23.6023L169.748 23.8872C168.94 25.502 167.658 26.8049 166.064 27.6315Z" fill="#4172E3"></path>
                        </svg>